%
M48
M72
T01C0.0079
T02C0.0138
T03C0.0197
T04C0.0350
T05C0.0404
%
T01
X5552Y37930
T02
X3229Y25449
X2678Y26827
X4446Y32182
X4729Y31780
X5339Y33071
X4764Y34583
X4493Y35532
X4016Y36473
X3343Y36457
X3343Y38583
X2949Y40040
X3898Y42733
X4426Y42654
X5075Y40512
X5079Y39622
X5638Y39020
X6300Y37103
X6142Y35804
X6500Y34815
X6910Y34146
X6898Y32894
X7819Y34831
X8307Y34150
X8174Y32918
X8229Y32063
X8579Y37008
X8540Y40000
X8622Y41315
X8540Y42126
X8583Y43008
X7426Y39036
X7441Y37063
X6811Y38087
X6689Y42599
X5276Y42536
X5394Y35725
X3977Y33559
X4867Y25835
X5296Y25843
X5768Y25843
X6945Y25839
X9370Y25410
X9410Y26473
X3067Y44607
T03
X4737Y43886
X5737Y43886
T04
X9260Y43536
X9260Y42536
X9260Y41536
X9260Y40536
X9260Y39536
X9260Y38536
X9260Y37536
X9260Y36536
X9260Y35536
X9260Y34536
X9260Y33536
X9260Y32536
X9260Y31536
X9260Y30536
X9260Y29536
X9260Y28536
X9260Y27536
X9260Y44536
X2260Y44536
X2260Y43536
X2260Y42536
X2260Y41536
X2260Y40536
X2260Y39536
X2260Y38536
X2260Y37536
X2260Y36536
X2260Y35536
X2260Y34536
X2260Y33536
X2260Y32536
X2260Y31536
X2260Y30536
X2260Y29536
X2260Y28536
X2260Y27536
T05
X6071Y33642
M30
