G75*
%MOIN*%
%OFA0B0*%
%FSLAX25Y25*%
%IPPOS*%
%LPD*%
%AMOC8*
5,1,8,0,0,1.08239X$1,22.5*
%
%ADD10C,0.06900*%
%ADD11C,0.06398*%
%ADD12C,0.05000*%
%ADD13C,0.01000*%
%ADD14C,0.03200*%
%ADD15C,0.01587*%
%ADD16C,0.02178*%
%ADD17C,0.02000*%
%ADD18C,0.02400*%
%ADD19C,0.01200*%
D10*
X0022602Y0275358D03*
X0022602Y0285358D03*
X0022602Y0295358D03*
X0022602Y0305358D03*
X0022602Y0315358D03*
X0022602Y0325358D03*
X0022602Y0335358D03*
X0022602Y0345358D03*
X0022602Y0355358D03*
X0022602Y0365358D03*
X0022602Y0375358D03*
X0022602Y0385358D03*
X0022602Y0395358D03*
X0022602Y0405358D03*
X0022602Y0415358D03*
X0022602Y0425358D03*
X0022602Y0435358D03*
X0022602Y0445358D03*
X0092602Y0445358D03*
X0092602Y0435358D03*
X0092602Y0425358D03*
X0092602Y0415358D03*
X0092602Y0405358D03*
X0092602Y0395358D03*
X0092602Y0385358D03*
X0092602Y0375358D03*
X0092602Y0365358D03*
X0092602Y0355358D03*
X0092602Y0345358D03*
X0092602Y0335358D03*
X0092602Y0325358D03*
X0092602Y0315358D03*
X0092602Y0305358D03*
X0092602Y0295358D03*
X0092602Y0285358D03*
X0092602Y0275358D03*
D11*
X0060713Y0336421D03*
D12*
X0057366Y0438862D03*
X0047366Y0438862D03*
D13*
X0014893Y0451753D02*
X0014893Y0249145D01*
X0099839Y0248759D01*
X0099839Y0451753D01*
X0069531Y0451753D01*
X0069531Y0436784D01*
X0084744Y0432092D01*
X0084924Y0432272D01*
X0086737Y0432272D01*
X0088020Y0430989D01*
X0088020Y0429176D01*
X0086737Y0427894D01*
X0084924Y0427894D01*
X0083776Y0429042D01*
X0069531Y0433436D01*
X0069531Y0432760D01*
X0034925Y0432760D01*
X0035043Y0434098D01*
X0035081Y0451753D01*
X0014893Y0451753D01*
X0014893Y0451182D02*
X0035080Y0451182D01*
X0035078Y0450183D02*
X0014893Y0450183D01*
X0014893Y0449185D02*
X0019994Y0449185D01*
X0020025Y0449216D02*
X0018745Y0447936D01*
X0018052Y0446263D01*
X0018052Y0444453D01*
X0018745Y0442781D01*
X0020025Y0441501D01*
X0021697Y0440808D01*
X0023507Y0440808D01*
X0025180Y0441501D01*
X0026460Y0442781D01*
X0027152Y0444453D01*
X0027152Y0446263D01*
X0026460Y0447936D01*
X0025180Y0449216D01*
X0023507Y0449908D01*
X0021697Y0449908D01*
X0020025Y0449216D01*
X0018996Y0448186D02*
X0014893Y0448186D01*
X0014893Y0447188D02*
X0018435Y0447188D01*
X0018052Y0446189D02*
X0014893Y0446189D01*
X0014893Y0445191D02*
X0018052Y0445191D01*
X0018160Y0444192D02*
X0014893Y0444192D01*
X0014893Y0443194D02*
X0018574Y0443194D01*
X0019331Y0442195D02*
X0014893Y0442195D01*
X0014893Y0441197D02*
X0020760Y0441197D01*
X0021697Y0439908D02*
X0020025Y0439216D01*
X0018745Y0437936D01*
X0018052Y0436263D01*
X0018052Y0434453D01*
X0018745Y0432781D01*
X0020025Y0431501D01*
X0021697Y0430808D01*
X0023507Y0430808D01*
X0025180Y0431501D01*
X0026460Y0432781D01*
X0027152Y0434453D01*
X0027152Y0436263D01*
X0026460Y0437936D01*
X0025180Y0439216D01*
X0023507Y0439908D01*
X0021697Y0439908D01*
X0020724Y0431212D02*
X0014893Y0431212D01*
X0014893Y0432210D02*
X0019316Y0432210D01*
X0018568Y0433209D02*
X0014893Y0433209D01*
X0014893Y0434207D02*
X0018154Y0434207D01*
X0018052Y0435206D02*
X0014893Y0435206D01*
X0014893Y0436204D02*
X0018052Y0436204D01*
X0018441Y0437203D02*
X0014893Y0437203D01*
X0014893Y0438201D02*
X0019011Y0438201D01*
X0020009Y0439200D02*
X0014893Y0439200D01*
X0014893Y0440198D02*
X0035056Y0440198D01*
X0035054Y0439200D02*
X0025196Y0439200D01*
X0026194Y0438201D02*
X0035052Y0438201D01*
X0035050Y0437203D02*
X0026763Y0437203D01*
X0027152Y0436204D02*
X0035048Y0436204D01*
X0035046Y0435206D02*
X0027152Y0435206D01*
X0027050Y0434207D02*
X0035044Y0434207D01*
X0034965Y0433209D02*
X0026637Y0433209D01*
X0025889Y0432210D02*
X0073505Y0432210D01*
X0074650Y0435206D02*
X0088052Y0435206D01*
X0088052Y0434453D02*
X0088745Y0432781D01*
X0090025Y0431501D01*
X0091697Y0430808D01*
X0093507Y0430808D01*
X0095180Y0431501D01*
X0096460Y0432781D01*
X0097152Y0434453D01*
X0097152Y0436263D01*
X0096460Y0437936D01*
X0095180Y0439216D01*
X0093507Y0439908D01*
X0091697Y0439908D01*
X0090025Y0439216D01*
X0088745Y0437936D01*
X0088052Y0436263D01*
X0088052Y0434453D01*
X0088154Y0434207D02*
X0077887Y0434207D01*
X0076742Y0431212D02*
X0024481Y0431212D01*
X0023507Y0429908D02*
X0021697Y0429908D01*
X0020025Y0429216D01*
X0018745Y0427936D01*
X0018052Y0426263D01*
X0018052Y0424453D01*
X0018745Y0422781D01*
X0020025Y0421501D01*
X0021697Y0420808D01*
X0023507Y0420808D01*
X0025180Y0421501D01*
X0026460Y0422781D01*
X0027152Y0424453D01*
X0027152Y0426263D01*
X0026460Y0427936D01*
X0025180Y0429216D01*
X0023507Y0429908D01*
X0025181Y0429215D02*
X0083217Y0429215D01*
X0084602Y0428216D02*
X0045854Y0428216D01*
X0045419Y0428740D02*
X0043522Y0428918D01*
X0042055Y0427702D01*
X0041877Y0425805D01*
X0073172Y0388039D01*
X0075069Y0387861D01*
X0076536Y0389077D01*
X0076713Y0390974D01*
X0045419Y0428740D01*
X0046681Y0427218D02*
X0051523Y0427218D01*
X0051853Y0427547D02*
X0050571Y0426265D01*
X0050571Y0424452D01*
X0051853Y0423169D01*
X0053667Y0423169D01*
X0053702Y0423205D01*
X0084200Y0412082D01*
X0085318Y0410965D01*
X0087131Y0410965D01*
X0088413Y0412247D01*
X0088413Y0413582D01*
X0088745Y0412781D01*
X0090025Y0411501D01*
X0091697Y0410808D01*
X0093507Y0410808D01*
X0095180Y0411501D01*
X0096460Y0412781D01*
X0097152Y0414453D01*
X0097152Y0416263D01*
X0096460Y0417936D01*
X0095180Y0419216D01*
X0093507Y0419908D01*
X0091697Y0419908D01*
X0090025Y0419216D01*
X0088745Y0417936D01*
X0088052Y0416263D01*
X0088052Y0414453D01*
X0088075Y0414399D01*
X0087131Y0415343D01*
X0085318Y0415343D01*
X0085282Y0415307D01*
X0054784Y0426429D01*
X0053667Y0427547D01*
X0051853Y0427547D01*
X0050571Y0426219D02*
X0047508Y0426219D01*
X0048336Y0425221D02*
X0050571Y0425221D01*
X0050800Y0424222D02*
X0049163Y0424222D01*
X0049991Y0423223D02*
X0051799Y0423223D01*
X0050818Y0422225D02*
X0056389Y0422225D01*
X0058099Y0425221D02*
X0088052Y0425221D01*
X0088052Y0424453D02*
X0088745Y0422781D01*
X0090025Y0421501D01*
X0091697Y0420808D01*
X0093507Y0420808D01*
X0095180Y0421501D01*
X0096460Y0422781D01*
X0097152Y0424453D01*
X0097152Y0426263D01*
X0096460Y0427936D01*
X0095180Y0429216D01*
X0093507Y0429908D01*
X0091697Y0429908D01*
X0090025Y0429216D01*
X0088745Y0427936D01*
X0088052Y0426263D01*
X0088052Y0424453D01*
X0088148Y0424222D02*
X0060837Y0424222D01*
X0059127Y0421226D02*
X0051645Y0421226D01*
X0052473Y0420228D02*
X0061865Y0420228D01*
X0063575Y0423223D02*
X0088562Y0423223D01*
X0089301Y0422225D02*
X0066313Y0422225D01*
X0067341Y0418231D02*
X0054128Y0418231D01*
X0054955Y0417232D02*
X0070079Y0417232D01*
X0071788Y0420228D02*
X0099839Y0420228D01*
X0099839Y0421226D02*
X0094517Y0421226D01*
X0095904Y0422225D02*
X0099839Y0422225D01*
X0099839Y0423223D02*
X0096643Y0423223D01*
X0097057Y0424222D02*
X0099839Y0424222D01*
X0099839Y0425221D02*
X0097152Y0425221D01*
X0097152Y0426219D02*
X0099839Y0426219D01*
X0099839Y0427218D02*
X0096757Y0427218D01*
X0096179Y0428216D02*
X0099839Y0428216D01*
X0099839Y0429215D02*
X0095181Y0429215D01*
X0094481Y0431212D02*
X0099839Y0431212D01*
X0099839Y0432210D02*
X0095889Y0432210D01*
X0096637Y0433209D02*
X0099839Y0433209D01*
X0099839Y0434207D02*
X0097050Y0434207D01*
X0097152Y0435206D02*
X0099839Y0435206D01*
X0099839Y0436204D02*
X0097152Y0436204D01*
X0096763Y0437203D02*
X0099839Y0437203D01*
X0099839Y0438201D02*
X0096194Y0438201D01*
X0095196Y0439200D02*
X0099839Y0439200D01*
X0099839Y0440198D02*
X0069531Y0440198D01*
X0069531Y0439200D02*
X0090009Y0439200D01*
X0089011Y0438201D02*
X0069531Y0438201D01*
X0069531Y0437203D02*
X0088441Y0437203D01*
X0088052Y0436204D02*
X0071413Y0436204D01*
X0070267Y0433209D02*
X0069531Y0433209D01*
X0069531Y0441197D02*
X0090760Y0441197D01*
X0090025Y0441501D02*
X0091697Y0440808D01*
X0093507Y0440808D01*
X0095180Y0441501D01*
X0096460Y0442781D01*
X0097152Y0444453D01*
X0097152Y0446263D01*
X0096460Y0447936D01*
X0095180Y0449216D01*
X0093507Y0449908D01*
X0091697Y0449908D01*
X0090025Y0449216D01*
X0088745Y0447936D01*
X0088052Y0446263D01*
X0088052Y0444453D01*
X0088745Y0442781D01*
X0090025Y0441501D01*
X0089331Y0442195D02*
X0069531Y0442195D01*
X0069531Y0443194D02*
X0088574Y0443194D01*
X0088160Y0444192D02*
X0069531Y0444192D01*
X0069531Y0445191D02*
X0088052Y0445191D01*
X0088052Y0446189D02*
X0069531Y0446189D01*
X0069531Y0447188D02*
X0088435Y0447188D01*
X0088996Y0448186D02*
X0069531Y0448186D01*
X0069531Y0449185D02*
X0089994Y0449185D01*
X0088568Y0433209D02*
X0081125Y0433209D01*
X0079979Y0430213D02*
X0014893Y0430213D01*
X0014893Y0429215D02*
X0020024Y0429215D01*
X0019025Y0428216D02*
X0014893Y0428216D01*
X0014893Y0427218D02*
X0018448Y0427218D01*
X0018052Y0426219D02*
X0014893Y0426219D01*
X0014893Y0425221D02*
X0018052Y0425221D01*
X0018148Y0424222D02*
X0014893Y0424222D01*
X0014893Y0423223D02*
X0018562Y0423223D01*
X0019301Y0422225D02*
X0014893Y0422225D01*
X0014893Y0421226D02*
X0020688Y0421226D01*
X0021697Y0419908D02*
X0020025Y0419216D01*
X0018745Y0417936D01*
X0018052Y0416263D01*
X0018052Y0414453D01*
X0018745Y0412781D01*
X0020025Y0411501D01*
X0021697Y0410808D01*
X0023507Y0410808D01*
X0025180Y0411501D01*
X0026460Y0412781D01*
X0027152Y0414453D01*
X0027152Y0416263D01*
X0026460Y0417936D01*
X0025180Y0419216D01*
X0023507Y0419908D01*
X0021697Y0419908D01*
X0020059Y0419229D02*
X0014893Y0419229D01*
X0014893Y0418231D02*
X0019040Y0418231D01*
X0018454Y0417232D02*
X0014893Y0417232D01*
X0014893Y0416234D02*
X0018052Y0416234D01*
X0018052Y0415235D02*
X0014893Y0415235D01*
X0014893Y0414237D02*
X0018142Y0414237D01*
X0018556Y0413238D02*
X0014893Y0413238D01*
X0014893Y0412240D02*
X0019286Y0412240D01*
X0020652Y0411241D02*
X0014893Y0411241D01*
X0014893Y0410243D02*
X0054773Y0410243D01*
X0055600Y0409244D02*
X0025110Y0409244D01*
X0025180Y0409216D02*
X0023507Y0409908D01*
X0021697Y0409908D01*
X0020025Y0409216D01*
X0018745Y0407936D01*
X0018052Y0406263D01*
X0018052Y0404453D01*
X0018745Y0402781D01*
X0020025Y0401501D01*
X0021697Y0400808D01*
X0023507Y0400808D01*
X0025180Y0401501D01*
X0026460Y0402781D01*
X0027152Y0404453D01*
X0027152Y0406263D01*
X0026460Y0407936D01*
X0025180Y0409216D01*
X0026149Y0408246D02*
X0056428Y0408246D01*
X0057255Y0407247D02*
X0026745Y0407247D01*
X0027152Y0406249D02*
X0058082Y0406249D01*
X0058910Y0405250D02*
X0027152Y0405250D01*
X0027069Y0404252D02*
X0059737Y0404252D01*
X0060565Y0403253D02*
X0026655Y0403253D01*
X0025934Y0402255D02*
X0061392Y0402255D01*
X0062219Y0401256D02*
X0024589Y0401256D01*
X0023507Y0399908D02*
X0025180Y0399216D01*
X0026460Y0397936D01*
X0027152Y0396263D01*
X0027152Y0394453D01*
X0026460Y0392781D01*
X0025180Y0391501D01*
X0023507Y0390808D01*
X0021697Y0390808D01*
X0020025Y0391501D01*
X0018745Y0392781D01*
X0018052Y0394453D01*
X0018052Y0396263D01*
X0018745Y0397936D01*
X0020025Y0399216D01*
X0021697Y0399908D01*
X0023507Y0399908D01*
X0025074Y0399259D02*
X0063874Y0399259D01*
X0064702Y0398261D02*
X0060189Y0398261D01*
X0060126Y0398324D02*
X0060082Y0398324D01*
X0060051Y0398354D01*
X0059219Y0398324D01*
X0051787Y0398324D01*
X0051698Y0398413D01*
X0049885Y0398413D01*
X0048602Y0397131D01*
X0048602Y0395318D01*
X0049885Y0394035D01*
X0051698Y0394035D01*
X0051787Y0394124D01*
X0058429Y0394124D01*
X0069296Y0384002D01*
X0069890Y0383413D01*
X0069929Y0383413D01*
X0069957Y0383386D01*
X0070793Y0383416D01*
X0088455Y0383480D01*
X0088745Y0382781D01*
X0090025Y0381501D01*
X0091697Y0380808D01*
X0093507Y0380808D01*
X0095180Y0381501D01*
X0096460Y0382781D01*
X0097152Y0384453D01*
X0097152Y0386263D01*
X0096460Y0387936D01*
X0095180Y0389216D01*
X0093507Y0389908D01*
X0091697Y0389908D01*
X0090025Y0389216D01*
X0088745Y0387936D01*
X0088640Y0387681D01*
X0071575Y0387619D01*
X0060715Y0397736D01*
X0060126Y0398324D01*
X0061223Y0397262D02*
X0065529Y0397262D01*
X0066356Y0396264D02*
X0062295Y0396264D01*
X0063367Y0395265D02*
X0067184Y0395265D01*
X0068011Y0394267D02*
X0064439Y0394267D01*
X0065510Y0393268D02*
X0068839Y0393268D01*
X0069666Y0392270D02*
X0066582Y0392270D01*
X0067654Y0391271D02*
X0070493Y0391271D01*
X0071321Y0390273D02*
X0068726Y0390273D01*
X0069798Y0389274D02*
X0072148Y0389274D01*
X0072976Y0388276D02*
X0070870Y0388276D01*
X0068996Y0384282D02*
X0046757Y0384282D01*
X0045619Y0387277D02*
X0026732Y0387277D01*
X0026460Y0387936D02*
X0025180Y0389216D01*
X0023507Y0389908D01*
X0021697Y0389908D01*
X0020025Y0389216D01*
X0018745Y0387936D01*
X0018052Y0386263D01*
X0018052Y0384453D01*
X0018745Y0382781D01*
X0020025Y0381501D01*
X0021697Y0380808D01*
X0023507Y0380808D01*
X0025180Y0381501D01*
X0026460Y0382781D01*
X0027152Y0384453D01*
X0027152Y0386263D01*
X0026460Y0387936D01*
X0026120Y0388276D02*
X0047879Y0388276D01*
X0049017Y0385280D02*
X0067924Y0385280D01*
X0066852Y0386279D02*
X0051277Y0386279D01*
X0050139Y0389274D02*
X0025038Y0389274D01*
X0024625Y0391271D02*
X0054357Y0391271D01*
X0054193Y0391107D02*
X0054193Y0391065D01*
X0025852Y0378543D01*
X0025180Y0379216D01*
X0023507Y0379908D01*
X0021697Y0379908D01*
X0020025Y0379216D01*
X0018745Y0377936D01*
X0018052Y0376263D01*
X0018052Y0374453D01*
X0018745Y0372781D01*
X0020025Y0371501D01*
X0021697Y0370808D01*
X0023507Y0370808D01*
X0025180Y0371501D01*
X0026460Y0372781D01*
X0027152Y0374453D01*
X0027152Y0375619D01*
X0055391Y0388096D01*
X0055475Y0388012D01*
X0057289Y0388012D01*
X0058571Y0389294D01*
X0058571Y0391107D01*
X0057289Y0392390D01*
X0055475Y0392390D01*
X0054193Y0391107D01*
X0055355Y0392270D02*
X0025948Y0392270D01*
X0026661Y0393268D02*
X0059349Y0393268D01*
X0060420Y0392270D02*
X0057409Y0392270D01*
X0058407Y0391271D02*
X0061492Y0391271D01*
X0062564Y0390273D02*
X0058571Y0390273D01*
X0058551Y0389274D02*
X0063636Y0389274D01*
X0064708Y0388276D02*
X0057552Y0388276D01*
X0056382Y0390201D02*
X0056106Y0390161D01*
X0022602Y0375358D01*
X0020508Y0371301D02*
X0014893Y0371301D01*
X0014893Y0372299D02*
X0019227Y0372299D01*
X0018531Y0373298D02*
X0014893Y0373298D01*
X0014893Y0374296D02*
X0018117Y0374296D01*
X0018052Y0375295D02*
X0014893Y0375295D01*
X0014893Y0376293D02*
X0018065Y0376293D01*
X0018478Y0377292D02*
X0014893Y0377292D01*
X0014893Y0378290D02*
X0019100Y0378290D01*
X0020202Y0379289D02*
X0014893Y0379289D01*
X0014893Y0380288D02*
X0029800Y0380288D01*
X0030938Y0377292D02*
X0088478Y0377292D01*
X0088340Y0376958D02*
X0073949Y0376958D01*
X0073636Y0377090D01*
X0073313Y0376958D01*
X0072963Y0376958D01*
X0072723Y0376718D01*
X0063968Y0373151D01*
X0063903Y0373217D01*
X0062089Y0373217D01*
X0060807Y0371934D01*
X0060807Y0370121D01*
X0062089Y0368839D01*
X0063903Y0368839D01*
X0065185Y0370121D01*
X0065185Y0370192D01*
X0073939Y0373758D01*
X0088340Y0373758D01*
X0088745Y0372781D01*
X0090025Y0371501D01*
X0091697Y0370808D01*
X0093507Y0370808D01*
X0095180Y0371501D01*
X0096460Y0372781D01*
X0097152Y0374453D01*
X0097152Y0376263D01*
X0096460Y0377936D01*
X0095180Y0379216D01*
X0093507Y0379908D01*
X0091697Y0379908D01*
X0090025Y0379216D01*
X0088745Y0377936D01*
X0088340Y0376958D01*
X0089100Y0378290D02*
X0033198Y0378290D01*
X0035458Y0379289D02*
X0090202Y0379289D01*
X0090544Y0381286D02*
X0039978Y0381286D01*
X0038839Y0384282D02*
X0027081Y0384282D01*
X0027152Y0385280D02*
X0041099Y0385280D01*
X0042238Y0382285D02*
X0089241Y0382285D01*
X0088537Y0383283D02*
X0044497Y0383283D01*
X0043359Y0386279D02*
X0027146Y0386279D01*
X0026668Y0383283D02*
X0036580Y0383283D01*
X0037718Y0380288D02*
X0099839Y0380288D01*
X0099839Y0381286D02*
X0094661Y0381286D01*
X0095963Y0382285D02*
X0099839Y0382285D01*
X0099839Y0383283D02*
X0096668Y0383283D01*
X0097081Y0384282D02*
X0099839Y0384282D01*
X0099839Y0385280D02*
X0097152Y0385280D01*
X0097146Y0386279D02*
X0099839Y0386279D01*
X0099839Y0387277D02*
X0096732Y0387277D01*
X0096120Y0388276D02*
X0099839Y0388276D01*
X0099839Y0389274D02*
X0095038Y0389274D01*
X0094625Y0391271D02*
X0099839Y0391271D01*
X0099839Y0390273D02*
X0076648Y0390273D01*
X0076554Y0389274D02*
X0090166Y0389274D01*
X0089085Y0388276D02*
X0075569Y0388276D01*
X0076467Y0391271D02*
X0090580Y0391271D01*
X0090025Y0391501D02*
X0091697Y0390808D01*
X0093507Y0390808D01*
X0095180Y0391501D01*
X0096460Y0392781D01*
X0097152Y0394453D01*
X0097152Y0396263D01*
X0096460Y0397936D01*
X0095180Y0399216D01*
X0093507Y0399908D01*
X0091697Y0399908D01*
X0090025Y0399216D01*
X0088745Y0397936D01*
X0088052Y0396263D01*
X0088052Y0394453D01*
X0088745Y0392781D01*
X0090025Y0391501D01*
X0089256Y0392270D02*
X0075640Y0392270D01*
X0074813Y0393268D02*
X0088543Y0393268D01*
X0088130Y0394267D02*
X0073985Y0394267D01*
X0073158Y0395265D02*
X0088052Y0395265D01*
X0088053Y0396264D02*
X0072330Y0396264D01*
X0071503Y0397262D02*
X0088466Y0397262D01*
X0089070Y0398261D02*
X0070676Y0398261D01*
X0069848Y0399259D02*
X0090130Y0399259D01*
X0090616Y0401256D02*
X0068193Y0401256D01*
X0067366Y0402255D02*
X0089271Y0402255D01*
X0088745Y0402781D02*
X0090025Y0401501D01*
X0091697Y0400808D01*
X0093507Y0400808D01*
X0095180Y0401501D01*
X0096460Y0402781D01*
X0097152Y0404453D01*
X0097152Y0406263D01*
X0096460Y0407936D01*
X0095180Y0409216D01*
X0093507Y0409908D01*
X0091697Y0409908D01*
X0090025Y0409216D01*
X0088745Y0407936D01*
X0088052Y0406263D01*
X0088052Y0404453D01*
X0088745Y0402781D01*
X0088549Y0403253D02*
X0066539Y0403253D01*
X0065711Y0404252D02*
X0088136Y0404252D01*
X0088052Y0405250D02*
X0064884Y0405250D01*
X0064056Y0406249D02*
X0088052Y0406249D01*
X0088460Y0407247D02*
X0063229Y0407247D01*
X0062402Y0408246D02*
X0089055Y0408246D01*
X0090094Y0409244D02*
X0061574Y0409244D01*
X0060747Y0410243D02*
X0099839Y0410243D01*
X0099839Y0411241D02*
X0094553Y0411241D01*
X0095919Y0412240D02*
X0099839Y0412240D01*
X0099839Y0413238D02*
X0096649Y0413238D01*
X0097063Y0414237D02*
X0099839Y0414237D01*
X0099839Y0415235D02*
X0097152Y0415235D01*
X0097152Y0416234D02*
X0099839Y0416234D01*
X0099839Y0417232D02*
X0096751Y0417232D01*
X0096164Y0418231D02*
X0099839Y0418231D01*
X0099839Y0419229D02*
X0095146Y0419229D01*
X0095110Y0409244D02*
X0099839Y0409244D01*
X0099839Y0408246D02*
X0096149Y0408246D01*
X0096745Y0407247D02*
X0099839Y0407247D01*
X0099839Y0406249D02*
X0097152Y0406249D01*
X0097152Y0405250D02*
X0099839Y0405250D01*
X0099839Y0404252D02*
X0097069Y0404252D01*
X0096655Y0403253D02*
X0099839Y0403253D01*
X0099839Y0402255D02*
X0095934Y0402255D01*
X0094589Y0401256D02*
X0099839Y0401256D01*
X0099839Y0400258D02*
X0069021Y0400258D01*
X0065780Y0387277D02*
X0053537Y0387277D01*
X0052399Y0390273D02*
X0014893Y0390273D01*
X0014893Y0391271D02*
X0020580Y0391271D01*
X0019256Y0392270D02*
X0014893Y0392270D01*
X0014893Y0393268D02*
X0018543Y0393268D01*
X0018130Y0394267D02*
X0014893Y0394267D01*
X0014893Y0395265D02*
X0018052Y0395265D01*
X0018053Y0396264D02*
X0014893Y0396264D01*
X0014893Y0397262D02*
X0018466Y0397262D01*
X0019070Y0398261D02*
X0014893Y0398261D01*
X0014893Y0399259D02*
X0020130Y0399259D01*
X0020616Y0401256D02*
X0014893Y0401256D01*
X0014893Y0400258D02*
X0063047Y0400258D01*
X0059919Y0411241D02*
X0085041Y0411241D01*
X0083768Y0412240D02*
X0059092Y0412240D01*
X0058265Y0413238D02*
X0081030Y0413238D01*
X0082740Y0416234D02*
X0088052Y0416234D01*
X0088052Y0415235D02*
X0087238Y0415235D01*
X0088413Y0413238D02*
X0088556Y0413238D01*
X0088406Y0412240D02*
X0089286Y0412240D01*
X0090652Y0411241D02*
X0087408Y0411241D01*
X0088454Y0417232D02*
X0080002Y0417232D01*
X0078292Y0414237D02*
X0057437Y0414237D01*
X0056610Y0415235D02*
X0075554Y0415235D01*
X0077264Y0418231D02*
X0089040Y0418231D01*
X0090059Y0419229D02*
X0074526Y0419229D01*
X0072817Y0416234D02*
X0055782Y0416234D01*
X0053945Y0411241D02*
X0024553Y0411241D01*
X0025919Y0412240D02*
X0053118Y0412240D01*
X0052291Y0413238D02*
X0026649Y0413238D01*
X0027063Y0414237D02*
X0051463Y0414237D01*
X0050636Y0415235D02*
X0027152Y0415235D01*
X0027152Y0416234D02*
X0049808Y0416234D01*
X0048981Y0417232D02*
X0026751Y0417232D01*
X0026164Y0418231D02*
X0048154Y0418231D01*
X0047326Y0419229D02*
X0025146Y0419229D01*
X0024517Y0421226D02*
X0045671Y0421226D01*
X0046499Y0420228D02*
X0014893Y0420228D01*
X0014893Y0409244D02*
X0020094Y0409244D01*
X0019055Y0408246D02*
X0014893Y0408246D01*
X0014893Y0407247D02*
X0018460Y0407247D01*
X0018052Y0406249D02*
X0014893Y0406249D01*
X0014893Y0405250D02*
X0018052Y0405250D01*
X0018136Y0404252D02*
X0014893Y0404252D01*
X0014893Y0403253D02*
X0018549Y0403253D01*
X0019271Y0402255D02*
X0014893Y0402255D01*
X0014893Y0389274D02*
X0020166Y0389274D01*
X0019085Y0388276D02*
X0014893Y0388276D01*
X0014893Y0387277D02*
X0018472Y0387277D01*
X0018059Y0386279D02*
X0014893Y0386279D01*
X0014893Y0385280D02*
X0018052Y0385280D01*
X0018123Y0384282D02*
X0014893Y0384282D01*
X0014893Y0383283D02*
X0018537Y0383283D01*
X0019241Y0382285D02*
X0014893Y0382285D01*
X0014893Y0381286D02*
X0020544Y0381286D01*
X0021697Y0369908D02*
X0020025Y0369216D01*
X0018745Y0367936D01*
X0018052Y0366263D01*
X0018052Y0364453D01*
X0018745Y0362781D01*
X0020025Y0361501D01*
X0021697Y0360808D01*
X0023507Y0360808D01*
X0025180Y0361501D01*
X0026460Y0362781D01*
X0027152Y0364453D01*
X0027152Y0366263D01*
X0026460Y0367936D01*
X0025180Y0369216D01*
X0023507Y0369908D01*
X0021697Y0369908D01*
X0022602Y0365358D02*
X0023232Y0365516D01*
X0024966Y0369304D02*
X0061624Y0369304D01*
X0060807Y0370302D02*
X0014893Y0370302D01*
X0014893Y0369304D02*
X0020238Y0369304D01*
X0019115Y0368305D02*
X0014893Y0368305D01*
X0014893Y0367307D02*
X0018485Y0367307D01*
X0018071Y0366308D02*
X0014893Y0366308D01*
X0014893Y0365310D02*
X0018052Y0365310D01*
X0018111Y0364311D02*
X0014893Y0364311D01*
X0014893Y0363313D02*
X0018525Y0363313D01*
X0019212Y0362314D02*
X0014893Y0362314D01*
X0014893Y0361316D02*
X0020472Y0361316D01*
X0021697Y0359908D02*
X0020025Y0359216D01*
X0018745Y0357936D01*
X0018052Y0356263D01*
X0018052Y0354453D01*
X0018745Y0352781D01*
X0020025Y0351501D01*
X0021697Y0350808D01*
X0023507Y0350808D01*
X0025180Y0351501D01*
X0026460Y0352781D01*
X0027152Y0354453D01*
X0027152Y0356263D01*
X0026460Y0357936D01*
X0025180Y0359216D01*
X0023507Y0359908D01*
X0021697Y0359908D01*
X0020436Y0351331D02*
X0014893Y0351331D01*
X0014893Y0352329D02*
X0019197Y0352329D01*
X0018519Y0353328D02*
X0014893Y0353328D01*
X0014893Y0354326D02*
X0018105Y0354326D01*
X0018052Y0355325D02*
X0014893Y0355325D01*
X0014893Y0356323D02*
X0018077Y0356323D01*
X0018491Y0357322D02*
X0014893Y0357322D01*
X0014893Y0358320D02*
X0019130Y0358320D01*
X0020274Y0359319D02*
X0014893Y0359319D01*
X0014893Y0360317D02*
X0038061Y0360317D01*
X0038061Y0359319D02*
X0024931Y0359319D01*
X0026075Y0358320D02*
X0038061Y0358320D01*
X0038061Y0357322D02*
X0026714Y0357322D01*
X0027128Y0356323D02*
X0038061Y0356323D01*
X0038061Y0355325D02*
X0027152Y0355325D01*
X0027100Y0354326D02*
X0038061Y0354326D01*
X0038061Y0353328D02*
X0026686Y0353328D01*
X0026008Y0352329D02*
X0038173Y0352329D01*
X0038061Y0352441D02*
X0045453Y0345050D01*
X0045453Y0344924D01*
X0046735Y0343642D01*
X0048548Y0343642D01*
X0049831Y0344924D01*
X0049831Y0346737D01*
X0048548Y0348020D01*
X0048423Y0348020D01*
X0042261Y0354181D01*
X0042261Y0362628D01*
X0059321Y0362628D01*
X0059321Y0359031D01*
X0059232Y0358942D01*
X0059232Y0357129D01*
X0060515Y0355846D01*
X0062328Y0355846D01*
X0063610Y0357129D01*
X0063610Y0358942D01*
X0063521Y0359031D01*
X0063521Y0363376D01*
X0074672Y0368445D01*
X0075320Y0368445D01*
X0075860Y0368985D01*
X0076074Y0369082D01*
X0076144Y0369269D01*
X0076602Y0369727D01*
X0076602Y0370490D01*
X0076685Y0370711D01*
X0076602Y0370893D01*
X0076602Y0371541D01*
X0076063Y0372080D01*
X0075965Y0372295D01*
X0075778Y0372365D01*
X0075320Y0372823D01*
X0074557Y0372823D01*
X0074336Y0372906D01*
X0074154Y0372823D01*
X0073507Y0372823D01*
X0072967Y0372283D01*
X0060966Y0366828D01*
X0041157Y0366828D01*
X0041068Y0366917D01*
X0039255Y0366917D01*
X0037972Y0365635D01*
X0037972Y0363822D01*
X0038061Y0363733D01*
X0038061Y0352441D01*
X0039172Y0351331D02*
X0024769Y0351331D01*
X0023507Y0349908D02*
X0021697Y0349908D01*
X0020025Y0349216D01*
X0018745Y0347936D01*
X0018052Y0346263D01*
X0018052Y0344453D01*
X0018745Y0342781D01*
X0020025Y0341501D01*
X0021697Y0340808D01*
X0023507Y0340808D01*
X0025180Y0341501D01*
X0026460Y0342781D01*
X0027152Y0344453D01*
X0027152Y0346263D01*
X0026460Y0347936D01*
X0025180Y0349216D01*
X0023507Y0349908D01*
X0024895Y0349334D02*
X0041169Y0349334D01*
X0040170Y0350332D02*
X0014893Y0350332D01*
X0014893Y0349334D02*
X0020310Y0349334D01*
X0019145Y0348335D02*
X0014893Y0348335D01*
X0014893Y0347337D02*
X0018497Y0347337D01*
X0018083Y0346338D02*
X0014893Y0346338D01*
X0014893Y0345340D02*
X0018052Y0345340D01*
X0018099Y0344341D02*
X0014893Y0344341D01*
X0014893Y0343343D02*
X0018512Y0343343D01*
X0019182Y0342344D02*
X0014893Y0342344D01*
X0014893Y0341346D02*
X0020400Y0341346D01*
X0021697Y0339908D02*
X0020025Y0339216D01*
X0018745Y0337936D01*
X0018052Y0336263D01*
X0018052Y0334453D01*
X0018745Y0332781D01*
X0020025Y0331501D01*
X0021697Y0330808D01*
X0023507Y0330808D01*
X0025180Y0331501D01*
X0026460Y0332781D01*
X0027152Y0334453D01*
X0027152Y0336263D01*
X0026460Y0337936D01*
X0025180Y0339216D01*
X0023507Y0339908D01*
X0021697Y0339908D01*
X0020346Y0339349D02*
X0014893Y0339349D01*
X0014893Y0340347D02*
X0058122Y0340347D01*
X0058250Y0340440D02*
X0057652Y0340005D01*
X0057129Y0339482D01*
X0056694Y0338884D01*
X0056358Y0338225D01*
X0056129Y0337522D01*
X0056034Y0336921D01*
X0060213Y0336921D01*
X0060213Y0341099D01*
X0059612Y0341004D01*
X0058909Y0340776D01*
X0058250Y0340440D01*
X0057031Y0339349D02*
X0024859Y0339349D01*
X0026045Y0338350D02*
X0056422Y0338350D01*
X0056103Y0337352D02*
X0041106Y0337352D01*
X0040674Y0337783D02*
X0041957Y0336501D01*
X0041957Y0335601D01*
X0047970Y0329200D01*
X0047996Y0329200D01*
X0048409Y0328783D01*
X0048860Y0328407D01*
X0048868Y0328320D01*
X0048929Y0328259D01*
X0048927Y0327672D01*
X0048980Y0327087D01*
X0048924Y0327020D01*
X0048893Y0319289D01*
X0049476Y0318706D01*
X0049476Y0316893D01*
X0048194Y0315610D01*
X0046381Y0315610D01*
X0045098Y0316893D01*
X0045098Y0318706D01*
X0045693Y0319301D01*
X0045696Y0319957D01*
X0045367Y0319628D01*
X0043554Y0319628D01*
X0042965Y0320217D01*
X0027011Y0320217D01*
X0026431Y0320159D01*
X0026360Y0320217D01*
X0026268Y0320217D01*
X0025856Y0320629D01*
X0024921Y0321394D01*
X0023507Y0320808D01*
X0021697Y0320808D01*
X0020025Y0321501D01*
X0018745Y0322781D01*
X0018052Y0324453D01*
X0018052Y0326263D01*
X0018745Y0327936D01*
X0020025Y0329216D01*
X0021697Y0329908D01*
X0023507Y0329908D01*
X0025180Y0329216D01*
X0026460Y0327936D01*
X0027152Y0326263D01*
X0027152Y0324453D01*
X0026920Y0323893D01*
X0027502Y0323417D01*
X0042965Y0323417D01*
X0043554Y0324006D01*
X0045367Y0324006D01*
X0045711Y0323662D01*
X0045724Y0326855D01*
X0045557Y0326994D01*
X0045547Y0327105D01*
X0039629Y0333406D01*
X0038861Y0333406D01*
X0037579Y0334688D01*
X0037579Y0336501D01*
X0038861Y0337783D01*
X0040674Y0337783D01*
X0041957Y0336353D02*
X0060213Y0336353D01*
X0060213Y0335921D02*
X0060213Y0336921D01*
X0061213Y0336921D01*
X0065391Y0336921D01*
X0065296Y0337522D01*
X0065067Y0338225D01*
X0064731Y0338884D01*
X0064297Y0339482D01*
X0063774Y0340005D01*
X0063175Y0340440D01*
X0062516Y0340776D01*
X0061813Y0341004D01*
X0061213Y0341099D01*
X0061213Y0336921D01*
X0061213Y0335921D01*
X0065391Y0335921D01*
X0065296Y0335321D01*
X0065067Y0334618D01*
X0064731Y0333959D01*
X0064297Y0333360D01*
X0063774Y0332837D01*
X0063175Y0332402D01*
X0062516Y0332067D01*
X0061813Y0331838D01*
X0061213Y0331743D01*
X0061213Y0335921D01*
X0060213Y0335921D01*
X0060213Y0331743D01*
X0059612Y0331838D01*
X0058909Y0332067D01*
X0058250Y0332402D01*
X0057652Y0332837D01*
X0057129Y0333360D01*
X0056694Y0333959D01*
X0056358Y0334618D01*
X0056129Y0335321D01*
X0056034Y0335921D01*
X0060213Y0335921D01*
X0060213Y0335355D02*
X0061213Y0335355D01*
X0061213Y0336353D02*
X0070279Y0336353D01*
X0069229Y0335355D02*
X0065301Y0335355D01*
X0064934Y0334356D02*
X0068178Y0334356D01*
X0067127Y0333357D02*
X0064294Y0333357D01*
X0063090Y0332359D02*
X0066076Y0332359D01*
X0065026Y0331360D02*
X0045940Y0331360D01*
X0046878Y0330362D02*
X0063975Y0330362D01*
X0062924Y0329363D02*
X0047816Y0329363D01*
X0048864Y0328365D02*
X0061873Y0328365D01*
X0060822Y0327366D02*
X0048955Y0327366D01*
X0048922Y0326368D02*
X0059772Y0326368D01*
X0058721Y0325369D02*
X0048918Y0325369D01*
X0048914Y0324371D02*
X0057670Y0324371D01*
X0056619Y0323372D02*
X0048910Y0323372D01*
X0048906Y0322374D02*
X0055568Y0322374D01*
X0054518Y0321375D02*
X0048902Y0321375D01*
X0048898Y0320377D02*
X0053467Y0320377D01*
X0052416Y0319378D02*
X0048894Y0319378D01*
X0049476Y0318380D02*
X0051365Y0318380D01*
X0050315Y0317381D02*
X0049476Y0317381D01*
X0050083Y0317184D02*
X0049629Y0316730D01*
X0049163Y0316287D01*
X0049163Y0316264D01*
X0049146Y0316247D01*
X0049146Y0315604D01*
X0049129Y0314962D01*
X0049146Y0314945D01*
X0049146Y0314921D01*
X0049191Y0314876D01*
X0049191Y0264604D01*
X0048003Y0263415D01*
X0048003Y0263415D01*
X0047065Y0262478D01*
X0047065Y0259846D01*
X0046476Y0259257D01*
X0046476Y0257444D01*
X0047759Y0256161D01*
X0049572Y0256161D01*
X0050850Y0257440D01*
X0052050Y0256240D01*
X0053863Y0256240D01*
X0055146Y0257522D01*
X0055146Y0259336D01*
X0055062Y0259419D01*
X0055367Y0313266D01*
X0069682Y0326752D01*
X0069887Y0326752D01*
X0070476Y0327341D01*
X0070697Y0327452D01*
X0070753Y0327618D01*
X0071169Y0328034D01*
X0071169Y0328867D01*
X0071248Y0329102D01*
X0071169Y0329259D01*
X0071169Y0329848D01*
X0070580Y0330437D01*
X0070470Y0330658D01*
X0070303Y0330713D01*
X0069887Y0331130D01*
X0069428Y0331130D01*
X0090611Y0351258D01*
X0091697Y0350808D01*
X0093507Y0350808D01*
X0095180Y0351501D01*
X0096460Y0352781D01*
X0097152Y0354453D01*
X0097152Y0356263D01*
X0096460Y0357936D01*
X0095180Y0359216D01*
X0093507Y0359908D01*
X0091697Y0359908D01*
X0090025Y0359216D01*
X0088745Y0357936D01*
X0088052Y0356263D01*
X0088052Y0354453D01*
X0088412Y0353584D01*
X0050107Y0317184D01*
X0050083Y0317184D01*
X0049264Y0316383D02*
X0048967Y0316383D01*
X0049140Y0315384D02*
X0027152Y0315384D01*
X0027152Y0316263D02*
X0026460Y0317936D01*
X0025180Y0319216D01*
X0023507Y0319908D01*
X0021697Y0319908D01*
X0020025Y0319216D01*
X0018745Y0317936D01*
X0018052Y0316263D01*
X0018052Y0314453D01*
X0018745Y0312781D01*
X0020025Y0311501D01*
X0021697Y0310808D01*
X0023507Y0310808D01*
X0025180Y0311501D01*
X0026460Y0312781D01*
X0027152Y0314453D01*
X0027152Y0316263D01*
X0027103Y0316383D02*
X0045608Y0316383D01*
X0045098Y0317381D02*
X0026689Y0317381D01*
X0026015Y0318380D02*
X0045098Y0318380D01*
X0045694Y0319378D02*
X0024787Y0319378D01*
X0026108Y0320377D02*
X0014893Y0320377D01*
X0014893Y0321375D02*
X0020328Y0321375D01*
X0019152Y0322374D02*
X0014893Y0322374D01*
X0014893Y0323372D02*
X0018500Y0323372D01*
X0018086Y0324371D02*
X0014893Y0324371D01*
X0014893Y0325369D02*
X0018052Y0325369D01*
X0018096Y0326368D02*
X0014893Y0326368D01*
X0014893Y0327366D02*
X0018509Y0327366D01*
X0019174Y0328365D02*
X0014893Y0328365D01*
X0014893Y0329363D02*
X0020382Y0329363D01*
X0020364Y0331360D02*
X0014893Y0331360D01*
X0014893Y0330362D02*
X0042488Y0330362D01*
X0043426Y0329363D02*
X0024823Y0329363D01*
X0026030Y0328365D02*
X0044364Y0328365D01*
X0045302Y0327366D02*
X0026695Y0327366D01*
X0027109Y0326368D02*
X0045722Y0326368D01*
X0045718Y0325369D02*
X0027152Y0325369D01*
X0027118Y0324371D02*
X0045714Y0324371D01*
X0044460Y0321817D02*
X0026931Y0321817D01*
X0022602Y0325358D01*
X0020418Y0319378D02*
X0014893Y0319378D01*
X0014893Y0318380D02*
X0019189Y0318380D01*
X0018515Y0317381D02*
X0014893Y0317381D01*
X0014893Y0316383D02*
X0018102Y0316383D01*
X0018052Y0315384D02*
X0014893Y0315384D01*
X0014893Y0314386D02*
X0018080Y0314386D01*
X0018494Y0313387D02*
X0014893Y0313387D01*
X0014893Y0312389D02*
X0019137Y0312389D01*
X0020292Y0311390D02*
X0014893Y0311390D01*
X0014893Y0310392D02*
X0049191Y0310392D01*
X0049191Y0311390D02*
X0024912Y0311390D01*
X0024502Y0309946D02*
X0023761Y0310186D01*
X0022992Y0310308D01*
X0022977Y0310308D01*
X0022977Y0305733D01*
X0022227Y0305733D01*
X0022227Y0304983D01*
X0017652Y0304983D01*
X0017652Y0304969D01*
X0017774Y0304199D01*
X0018015Y0303458D01*
X0018369Y0302764D01*
X0018827Y0302134D01*
X0019378Y0301583D01*
X0020008Y0301125D01*
X0020702Y0300771D01*
X0021443Y0300530D01*
X0022213Y0300408D01*
X0022227Y0300408D01*
X0022227Y0304983D01*
X0022977Y0304983D01*
X0022977Y0300408D01*
X0022992Y0300408D01*
X0023761Y0300530D01*
X0024502Y0300771D01*
X0025197Y0301125D01*
X0025827Y0301583D01*
X0026378Y0302134D01*
X0026836Y0302764D01*
X0027190Y0303458D01*
X0027430Y0304199D01*
X0027552Y0304969D01*
X0027552Y0304983D01*
X0022977Y0304983D01*
X0022977Y0305733D01*
X0027552Y0305733D01*
X0027552Y0305748D01*
X0027430Y0306517D01*
X0027190Y0307258D01*
X0026836Y0307953D01*
X0026378Y0308583D01*
X0025827Y0309134D01*
X0025197Y0309592D01*
X0024502Y0309946D01*
X0025470Y0309393D02*
X0049191Y0309393D01*
X0049191Y0308395D02*
X0026515Y0308395D01*
X0027120Y0307396D02*
X0049191Y0307396D01*
X0049191Y0306398D02*
X0027449Y0306398D01*
X0027462Y0304401D02*
X0049191Y0304401D01*
X0049191Y0305399D02*
X0022977Y0305399D01*
X0022227Y0305399D02*
X0014893Y0305399D01*
X0014893Y0304401D02*
X0017742Y0304401D01*
X0018044Y0303402D02*
X0014893Y0303402D01*
X0014893Y0302404D02*
X0018630Y0302404D01*
X0019622Y0301405D02*
X0014893Y0301405D01*
X0014893Y0300407D02*
X0049191Y0300407D01*
X0049191Y0301405D02*
X0025583Y0301405D01*
X0026574Y0302404D02*
X0049191Y0302404D01*
X0049191Y0303402D02*
X0027161Y0303402D01*
X0025986Y0298410D02*
X0049191Y0298410D01*
X0049191Y0299408D02*
X0024715Y0299408D01*
X0025180Y0299216D02*
X0023507Y0299908D01*
X0021697Y0299908D01*
X0020025Y0299216D01*
X0018745Y0297936D01*
X0018052Y0296263D01*
X0018052Y0294453D01*
X0018745Y0292781D01*
X0020025Y0291501D01*
X0021697Y0290808D01*
X0023507Y0290808D01*
X0025180Y0291501D01*
X0026460Y0292781D01*
X0027152Y0294453D01*
X0027152Y0296263D01*
X0026460Y0297936D01*
X0025180Y0299216D01*
X0026677Y0297411D02*
X0049191Y0297411D01*
X0049191Y0296413D02*
X0027091Y0296413D01*
X0027152Y0295414D02*
X0049191Y0295414D01*
X0049191Y0294416D02*
X0027137Y0294416D01*
X0026723Y0293417D02*
X0049191Y0293417D01*
X0049191Y0292419D02*
X0026097Y0292419D01*
X0024984Y0291420D02*
X0049191Y0291420D01*
X0049191Y0290421D02*
X0014893Y0290421D01*
X0014893Y0289423D02*
X0020526Y0289423D01*
X0020025Y0289216D02*
X0018745Y0287936D01*
X0018052Y0286263D01*
X0018052Y0284453D01*
X0018745Y0282781D01*
X0020025Y0281501D01*
X0021697Y0280808D01*
X0023507Y0280808D01*
X0025180Y0281501D01*
X0026460Y0282781D01*
X0027152Y0284453D01*
X0027152Y0286263D01*
X0026460Y0287936D01*
X0025180Y0289216D01*
X0023507Y0289908D01*
X0021697Y0289908D01*
X0020025Y0289216D01*
X0019234Y0288424D02*
X0014893Y0288424D01*
X0014893Y0287426D02*
X0018534Y0287426D01*
X0018120Y0286427D02*
X0014893Y0286427D01*
X0014893Y0285429D02*
X0018052Y0285429D01*
X0018062Y0284430D02*
X0014893Y0284430D01*
X0014893Y0283432D02*
X0018475Y0283432D01*
X0019093Y0282433D02*
X0014893Y0282433D01*
X0014893Y0281435D02*
X0020184Y0281435D01*
X0020562Y0279438D02*
X0014893Y0279438D01*
X0014893Y0280436D02*
X0049191Y0280436D01*
X0049191Y0279438D02*
X0024643Y0279438D01*
X0025180Y0279216D02*
X0023507Y0279908D01*
X0021697Y0279908D01*
X0020025Y0279216D01*
X0018745Y0277936D01*
X0018052Y0276263D01*
X0018052Y0274453D01*
X0018745Y0272781D01*
X0020025Y0271501D01*
X0021697Y0270808D01*
X0023507Y0270808D01*
X0025180Y0271501D01*
X0026460Y0272781D01*
X0027152Y0274453D01*
X0027152Y0276263D01*
X0026460Y0277936D01*
X0025180Y0279216D01*
X0025956Y0278439D02*
X0049191Y0278439D01*
X0049191Y0277441D02*
X0026665Y0277441D01*
X0027078Y0276442D02*
X0049191Y0276442D01*
X0049191Y0275444D02*
X0027152Y0275444D01*
X0027149Y0274445D02*
X0049191Y0274445D01*
X0049191Y0273447D02*
X0026735Y0273447D01*
X0026127Y0272448D02*
X0049191Y0272448D01*
X0049191Y0271450D02*
X0025056Y0271450D01*
X0025020Y0281435D02*
X0049191Y0281435D01*
X0049191Y0282433D02*
X0026112Y0282433D01*
X0026729Y0283432D02*
X0049191Y0283432D01*
X0049191Y0284430D02*
X0027143Y0284430D01*
X0027152Y0285429D02*
X0049191Y0285429D01*
X0049191Y0286427D02*
X0027084Y0286427D01*
X0026671Y0287426D02*
X0049191Y0287426D01*
X0049191Y0288424D02*
X0025971Y0288424D01*
X0024679Y0289423D02*
X0049191Y0289423D01*
X0049191Y0270451D02*
X0014893Y0270451D01*
X0014893Y0269453D02*
X0049191Y0269453D01*
X0049191Y0268454D02*
X0014893Y0268454D01*
X0014893Y0267456D02*
X0049191Y0267456D01*
X0049191Y0266457D02*
X0014893Y0266457D01*
X0014893Y0265459D02*
X0049191Y0265459D01*
X0049048Y0264460D02*
X0014893Y0264460D01*
X0014893Y0263462D02*
X0048049Y0263462D01*
X0047065Y0262463D02*
X0014893Y0262463D01*
X0014893Y0261465D02*
X0047065Y0261465D01*
X0047065Y0260466D02*
X0014893Y0260466D01*
X0014893Y0259468D02*
X0046687Y0259468D01*
X0046476Y0258469D02*
X0014893Y0258469D01*
X0014893Y0257471D02*
X0046476Y0257471D01*
X0047448Y0256472D02*
X0014893Y0256472D01*
X0014893Y0255474D02*
X0099839Y0255474D01*
X0099839Y0256472D02*
X0070631Y0256472D01*
X0070359Y0256201D02*
X0071642Y0257483D01*
X0071642Y0259296D01*
X0071054Y0259884D01*
X0071092Y0311698D01*
X0080098Y0320604D01*
X0080098Y0319727D01*
X0081381Y0318445D01*
X0083194Y0318445D01*
X0084476Y0319727D01*
X0084476Y0320166D01*
X0088068Y0323758D01*
X0088340Y0323758D01*
X0088745Y0322781D01*
X0090025Y0321501D01*
X0091697Y0320808D01*
X0093507Y0320808D01*
X0095180Y0321501D01*
X0096460Y0322781D01*
X0097152Y0324453D01*
X0097152Y0326263D01*
X0096460Y0327936D01*
X0095180Y0329216D01*
X0093507Y0329908D01*
X0091697Y0329908D01*
X0090025Y0329216D01*
X0088745Y0327936D01*
X0088340Y0326958D01*
X0086743Y0326958D01*
X0082607Y0322823D01*
X0082342Y0322823D01*
X0084285Y0324744D01*
X0084292Y0324744D01*
X0084755Y0325209D01*
X0085222Y0325671D01*
X0085222Y0325678D01*
X0085370Y0325827D01*
X0085836Y0326292D01*
X0085836Y0326294D01*
X0090729Y0331209D01*
X0091697Y0330808D01*
X0093507Y0330808D01*
X0095180Y0331501D01*
X0096460Y0332781D01*
X0097152Y0334453D01*
X0097152Y0336263D01*
X0096460Y0337936D01*
X0095180Y0339216D01*
X0093507Y0339908D01*
X0091697Y0339908D01*
X0090025Y0339216D01*
X0088745Y0337936D01*
X0088052Y0336263D01*
X0088052Y0334453D01*
X0088461Y0333467D01*
X0084233Y0329220D01*
X0083925Y0329528D01*
X0083925Y0330084D01*
X0082643Y0331366D01*
X0080830Y0331366D01*
X0079547Y0330084D01*
X0079547Y0328270D01*
X0080830Y0326988D01*
X0081940Y0326988D01*
X0081971Y0326957D01*
X0068835Y0313967D01*
X0068831Y0313967D01*
X0068364Y0313501D01*
X0067896Y0313038D01*
X0067896Y0313033D01*
X0067893Y0313030D01*
X0067892Y0312371D01*
X0067888Y0311712D01*
X0067892Y0311709D01*
X0067854Y0259887D01*
X0067264Y0259296D01*
X0067264Y0257483D01*
X0068546Y0256201D01*
X0070359Y0256201D01*
X0071629Y0257471D02*
X0099839Y0257471D01*
X0099839Y0258469D02*
X0071642Y0258469D01*
X0071471Y0259468D02*
X0099839Y0259468D01*
X0099839Y0260466D02*
X0071054Y0260466D01*
X0071055Y0261465D02*
X0099839Y0261465D01*
X0099839Y0262463D02*
X0071056Y0262463D01*
X0071056Y0263462D02*
X0099839Y0263462D01*
X0099839Y0264460D02*
X0071057Y0264460D01*
X0071058Y0265459D02*
X0099839Y0265459D01*
X0099839Y0266457D02*
X0071059Y0266457D01*
X0071059Y0267456D02*
X0099839Y0267456D01*
X0099839Y0268454D02*
X0071060Y0268454D01*
X0071061Y0269453D02*
X0099839Y0269453D01*
X0099839Y0270451D02*
X0071062Y0270451D01*
X0071062Y0271450D02*
X0090149Y0271450D01*
X0090025Y0271501D02*
X0091697Y0270808D01*
X0093507Y0270808D01*
X0095180Y0271501D01*
X0096460Y0272781D01*
X0097152Y0274453D01*
X0097152Y0276263D01*
X0096460Y0277936D01*
X0095180Y0279216D01*
X0093507Y0279908D01*
X0091697Y0279908D01*
X0090025Y0279216D01*
X0088745Y0277936D01*
X0088052Y0276263D01*
X0088052Y0274453D01*
X0088745Y0272781D01*
X0090025Y0271501D01*
X0089078Y0272448D02*
X0071063Y0272448D01*
X0071064Y0273447D02*
X0088469Y0273447D01*
X0088056Y0274445D02*
X0071064Y0274445D01*
X0071065Y0275444D02*
X0088052Y0275444D01*
X0088127Y0276442D02*
X0071066Y0276442D01*
X0071067Y0277441D02*
X0088540Y0277441D01*
X0089249Y0278439D02*
X0071067Y0278439D01*
X0071068Y0279438D02*
X0090562Y0279438D01*
X0090702Y0280771D02*
X0090008Y0281125D01*
X0089378Y0281583D01*
X0088827Y0282134D01*
X0088369Y0282764D01*
X0088015Y0283458D01*
X0087774Y0284199D01*
X0087652Y0284969D01*
X0087652Y0284983D01*
X0092227Y0284983D01*
X0092227Y0285733D01*
X0087652Y0285733D01*
X0087652Y0285748D01*
X0087774Y0286517D01*
X0088015Y0287258D01*
X0088369Y0287953D01*
X0088827Y0288583D01*
X0089378Y0289134D01*
X0090008Y0289592D01*
X0090702Y0289946D01*
X0091443Y0290186D01*
X0092213Y0290308D01*
X0092227Y0290308D01*
X0092227Y0285733D01*
X0092977Y0285733D01*
X0092977Y0290308D01*
X0092992Y0290308D01*
X0093761Y0290186D01*
X0094502Y0289946D01*
X0095197Y0289592D01*
X0095827Y0289134D01*
X0096378Y0288583D01*
X0096836Y0287953D01*
X0097190Y0287258D01*
X0097430Y0286517D01*
X0097552Y0285748D01*
X0097552Y0285733D01*
X0092977Y0285733D01*
X0092977Y0284983D01*
X0092977Y0280408D01*
X0092992Y0280408D01*
X0093761Y0280530D01*
X0094502Y0280771D01*
X0095197Y0281125D01*
X0095827Y0281583D01*
X0096378Y0282134D01*
X0096836Y0282764D01*
X0097190Y0283458D01*
X0097430Y0284199D01*
X0097552Y0284969D01*
X0097552Y0284983D01*
X0092977Y0284983D01*
X0092227Y0284983D01*
X0092227Y0280408D01*
X0092213Y0280408D01*
X0091443Y0280530D01*
X0090702Y0280771D01*
X0089581Y0281435D02*
X0071070Y0281435D01*
X0071070Y0282433D02*
X0088609Y0282433D01*
X0088028Y0283432D02*
X0071071Y0283432D01*
X0071072Y0284430D02*
X0087738Y0284430D01*
X0087760Y0286427D02*
X0071073Y0286427D01*
X0071072Y0285429D02*
X0092227Y0285429D01*
X0092977Y0285429D02*
X0099839Y0285429D01*
X0099839Y0286427D02*
X0097445Y0286427D01*
X0097104Y0287426D02*
X0099839Y0287426D01*
X0099839Y0288424D02*
X0096493Y0288424D01*
X0095429Y0289423D02*
X0099839Y0289423D01*
X0099839Y0290421D02*
X0071076Y0290421D01*
X0071075Y0289423D02*
X0089776Y0289423D01*
X0088712Y0288424D02*
X0071075Y0288424D01*
X0071074Y0287426D02*
X0088100Y0287426D01*
X0090025Y0291501D02*
X0088745Y0292781D01*
X0088052Y0294453D01*
X0088052Y0296263D01*
X0088745Y0297936D01*
X0090025Y0299216D01*
X0091697Y0299908D01*
X0093507Y0299908D01*
X0095180Y0299216D01*
X0096460Y0297936D01*
X0097152Y0296263D01*
X0097152Y0294453D01*
X0096460Y0292781D01*
X0095180Y0291501D01*
X0093507Y0290808D01*
X0091697Y0290808D01*
X0090025Y0291501D01*
X0090220Y0291420D02*
X0071077Y0291420D01*
X0071078Y0292419D02*
X0089107Y0292419D01*
X0088482Y0293417D02*
X0071078Y0293417D01*
X0071079Y0294416D02*
X0088068Y0294416D01*
X0088052Y0295414D02*
X0071080Y0295414D01*
X0071080Y0296413D02*
X0088114Y0296413D01*
X0088528Y0297411D02*
X0071081Y0297411D01*
X0071082Y0298410D02*
X0089219Y0298410D01*
X0090490Y0299408D02*
X0071083Y0299408D01*
X0071083Y0300407D02*
X0099839Y0300407D01*
X0099839Y0301405D02*
X0094948Y0301405D01*
X0095180Y0301501D02*
X0096460Y0302781D01*
X0097152Y0304453D01*
X0097152Y0306263D01*
X0096460Y0307936D01*
X0095180Y0309216D01*
X0093507Y0309908D01*
X0091697Y0309908D01*
X0090025Y0309216D01*
X0088745Y0307936D01*
X0088052Y0306263D01*
X0088052Y0304453D01*
X0088745Y0302781D01*
X0090025Y0301501D01*
X0091697Y0300808D01*
X0093507Y0300808D01*
X0095180Y0301501D01*
X0096082Y0302404D02*
X0099839Y0302404D01*
X0099839Y0303402D02*
X0096717Y0303402D01*
X0097131Y0304401D02*
X0099839Y0304401D01*
X0099839Y0305399D02*
X0097152Y0305399D01*
X0097097Y0306398D02*
X0099839Y0306398D01*
X0099839Y0307396D02*
X0096683Y0307396D01*
X0096001Y0308395D02*
X0099839Y0308395D01*
X0099839Y0309393D02*
X0094751Y0309393D01*
X0093507Y0310808D02*
X0095180Y0311501D01*
X0096460Y0312781D01*
X0097152Y0314453D01*
X0097152Y0316263D01*
X0096460Y0317936D01*
X0095180Y0319216D01*
X0093507Y0319908D01*
X0091697Y0319908D01*
X0090025Y0319216D01*
X0088745Y0317936D01*
X0088052Y0316263D01*
X0088052Y0314453D01*
X0088745Y0312781D01*
X0090025Y0311501D01*
X0091697Y0310808D01*
X0093507Y0310808D01*
X0094912Y0311390D02*
X0099839Y0311390D01*
X0099839Y0310392D02*
X0071091Y0310392D01*
X0071091Y0311390D02*
X0090292Y0311390D01*
X0089137Y0312389D02*
X0071790Y0312389D01*
X0072800Y0313387D02*
X0088494Y0313387D01*
X0088080Y0314386D02*
X0073810Y0314386D01*
X0074820Y0315384D02*
X0088052Y0315384D01*
X0088102Y0316383D02*
X0075830Y0316383D01*
X0076839Y0317381D02*
X0088515Y0317381D01*
X0089189Y0318380D02*
X0077849Y0318380D01*
X0078859Y0319378D02*
X0080447Y0319378D01*
X0080098Y0320377D02*
X0079869Y0320377D01*
X0078347Y0323372D02*
X0071817Y0323372D01*
X0070768Y0322374D02*
X0077337Y0322374D01*
X0076327Y0321375D02*
X0069719Y0321375D01*
X0068669Y0320377D02*
X0075318Y0320377D01*
X0074308Y0319378D02*
X0067620Y0319378D01*
X0066570Y0318380D02*
X0073298Y0318380D01*
X0072288Y0317381D02*
X0065521Y0317381D01*
X0064472Y0316383D02*
X0071279Y0316383D01*
X0070269Y0315384D02*
X0063422Y0315384D01*
X0062373Y0314386D02*
X0069259Y0314386D01*
X0068249Y0313387D02*
X0061324Y0313387D01*
X0060274Y0312389D02*
X0067892Y0312389D01*
X0067891Y0311390D02*
X0059281Y0311390D01*
X0059281Y0311444D02*
X0090613Y0341257D01*
X0091697Y0340808D01*
X0093507Y0340808D01*
X0095180Y0341501D01*
X0096460Y0342781D01*
X0097152Y0344453D01*
X0097152Y0346263D01*
X0096460Y0347936D01*
X0095180Y0349216D01*
X0093507Y0349908D01*
X0091697Y0349908D01*
X0090025Y0349216D01*
X0088745Y0347936D01*
X0088052Y0346263D01*
X0088052Y0344453D01*
X0088414Y0343581D01*
X0057042Y0313730D01*
X0057018Y0313730D01*
X0056564Y0313275D01*
X0056098Y0312832D01*
X0056097Y0312809D01*
X0056081Y0312793D01*
X0056081Y0312150D01*
X0056065Y0311507D01*
X0056081Y0311490D01*
X0056081Y0259925D01*
X0055492Y0259336D01*
X0055492Y0257522D01*
X0056774Y0256240D01*
X0058588Y0256240D01*
X0059870Y0257522D01*
X0059870Y0259336D01*
X0059281Y0259925D01*
X0059281Y0311444D01*
X0059281Y0310392D02*
X0067891Y0310392D01*
X0067890Y0309393D02*
X0059281Y0309393D01*
X0059281Y0308395D02*
X0067889Y0308395D01*
X0067889Y0307396D02*
X0059281Y0307396D01*
X0059281Y0306398D02*
X0067888Y0306398D01*
X0067887Y0305399D02*
X0059281Y0305399D01*
X0059281Y0304401D02*
X0067886Y0304401D01*
X0067886Y0303402D02*
X0059281Y0303402D01*
X0059281Y0302404D02*
X0067885Y0302404D01*
X0067884Y0301405D02*
X0059281Y0301405D01*
X0059281Y0300407D02*
X0067883Y0300407D01*
X0067883Y0299408D02*
X0059281Y0299408D01*
X0059281Y0298410D02*
X0067882Y0298410D01*
X0067881Y0297411D02*
X0059281Y0297411D01*
X0059281Y0296413D02*
X0067880Y0296413D01*
X0067880Y0295414D02*
X0059281Y0295414D01*
X0059281Y0294416D02*
X0067879Y0294416D01*
X0067878Y0293417D02*
X0059281Y0293417D01*
X0059281Y0292419D02*
X0067878Y0292419D01*
X0067877Y0291420D02*
X0059281Y0291420D01*
X0059281Y0290421D02*
X0067876Y0290421D01*
X0067875Y0289423D02*
X0059281Y0289423D01*
X0059281Y0288424D02*
X0067875Y0288424D01*
X0067874Y0287426D02*
X0059281Y0287426D01*
X0059281Y0286427D02*
X0067873Y0286427D01*
X0067872Y0285429D02*
X0059281Y0285429D01*
X0059281Y0284430D02*
X0067872Y0284430D01*
X0067871Y0283432D02*
X0059281Y0283432D01*
X0059281Y0282433D02*
X0067870Y0282433D01*
X0067870Y0281435D02*
X0059281Y0281435D01*
X0059281Y0280436D02*
X0067869Y0280436D01*
X0067868Y0279438D02*
X0059281Y0279438D01*
X0059281Y0278439D02*
X0067867Y0278439D01*
X0067867Y0277441D02*
X0059281Y0277441D01*
X0059281Y0276442D02*
X0067866Y0276442D01*
X0067865Y0275444D02*
X0059281Y0275444D01*
X0059281Y0274445D02*
X0067864Y0274445D01*
X0067864Y0273447D02*
X0059281Y0273447D01*
X0059281Y0272448D02*
X0067863Y0272448D01*
X0067862Y0271450D02*
X0059281Y0271450D01*
X0059281Y0270451D02*
X0067862Y0270451D01*
X0067861Y0269453D02*
X0059281Y0269453D01*
X0059281Y0268454D02*
X0067860Y0268454D01*
X0067859Y0267456D02*
X0059281Y0267456D01*
X0059281Y0266457D02*
X0067859Y0266457D01*
X0067858Y0265459D02*
X0059281Y0265459D01*
X0059281Y0264460D02*
X0067857Y0264460D01*
X0067856Y0263462D02*
X0059281Y0263462D01*
X0059281Y0262463D02*
X0067856Y0262463D01*
X0067855Y0261465D02*
X0059281Y0261465D01*
X0059281Y0260466D02*
X0067854Y0260466D01*
X0067435Y0259468D02*
X0059738Y0259468D01*
X0059870Y0258469D02*
X0067264Y0258469D01*
X0067276Y0257471D02*
X0059818Y0257471D01*
X0058820Y0256472D02*
X0068275Y0256472D01*
X0069453Y0258390D02*
X0069492Y0312366D01*
X0083626Y0326343D01*
X0084236Y0326955D01*
X0082013Y0329177D01*
X0081736Y0329177D01*
X0080451Y0327366D02*
X0076015Y0327366D01*
X0074966Y0326368D02*
X0081376Y0326368D01*
X0080366Y0325369D02*
X0073916Y0325369D01*
X0072867Y0324371D02*
X0079357Y0324371D01*
X0079547Y0328365D02*
X0077064Y0328365D01*
X0078114Y0329363D02*
X0079547Y0329363D01*
X0079825Y0330362D02*
X0079163Y0330362D01*
X0080212Y0331360D02*
X0080824Y0331360D01*
X0081262Y0332359D02*
X0087358Y0332359D01*
X0086364Y0331360D02*
X0082649Y0331360D01*
X0083647Y0330362D02*
X0085370Y0330362D01*
X0084376Y0329363D02*
X0084090Y0329363D01*
X0084236Y0326955D02*
X0092602Y0335358D01*
X0089159Y0338350D02*
X0087558Y0338350D01*
X0088503Y0337352D02*
X0086509Y0337352D01*
X0085459Y0336353D02*
X0088090Y0336353D01*
X0088052Y0335355D02*
X0084410Y0335355D01*
X0083361Y0334356D02*
X0088093Y0334356D01*
X0088353Y0333357D02*
X0082311Y0333357D01*
X0080817Y0336353D02*
X0074925Y0336353D01*
X0075976Y0337352D02*
X0081867Y0337352D01*
X0082916Y0338350D02*
X0077026Y0338350D01*
X0078077Y0339349D02*
X0083965Y0339349D01*
X0085015Y0340347D02*
X0079128Y0340347D01*
X0080179Y0341346D02*
X0086064Y0341346D01*
X0087114Y0342344D02*
X0081230Y0342344D01*
X0082280Y0343343D02*
X0088163Y0343343D01*
X0088099Y0344341D02*
X0083331Y0344341D01*
X0084382Y0345340D02*
X0088052Y0345340D01*
X0088083Y0346338D02*
X0085433Y0346338D01*
X0086484Y0347337D02*
X0088497Y0347337D01*
X0089145Y0348335D02*
X0087534Y0348335D01*
X0088585Y0349334D02*
X0090310Y0349334D01*
X0089636Y0350332D02*
X0099839Y0350332D01*
X0099839Y0349334D02*
X0094895Y0349334D01*
X0096060Y0348335D02*
X0099839Y0348335D01*
X0099839Y0347337D02*
X0096708Y0347337D01*
X0097121Y0346338D02*
X0099839Y0346338D01*
X0099839Y0345340D02*
X0097152Y0345340D01*
X0097106Y0344341D02*
X0099839Y0344341D01*
X0099839Y0343343D02*
X0096692Y0343343D01*
X0096023Y0342344D02*
X0099839Y0342344D01*
X0099839Y0341346D02*
X0094805Y0341346D01*
X0094859Y0339349D02*
X0099839Y0339349D01*
X0099839Y0340347D02*
X0089657Y0340347D01*
X0090346Y0339349D02*
X0088608Y0339349D01*
X0089886Y0330362D02*
X0099839Y0330362D01*
X0099839Y0331360D02*
X0094841Y0331360D01*
X0096038Y0332359D02*
X0099839Y0332359D01*
X0099839Y0333357D02*
X0096698Y0333357D01*
X0097112Y0334356D02*
X0099839Y0334356D01*
X0099839Y0335355D02*
X0097152Y0335355D01*
X0097115Y0336353D02*
X0099839Y0336353D01*
X0099839Y0337352D02*
X0096702Y0337352D01*
X0096045Y0338350D02*
X0099839Y0338350D01*
X0099839Y0329363D02*
X0094823Y0329363D01*
X0096030Y0328365D02*
X0099839Y0328365D01*
X0099839Y0327366D02*
X0096695Y0327366D01*
X0097109Y0326368D02*
X0099839Y0326368D01*
X0099839Y0325369D02*
X0097152Y0325369D01*
X0097118Y0324371D02*
X0099839Y0324371D01*
X0099839Y0323372D02*
X0096705Y0323372D01*
X0096053Y0322374D02*
X0099839Y0322374D01*
X0099839Y0321375D02*
X0094876Y0321375D01*
X0094787Y0319378D02*
X0099839Y0319378D01*
X0099839Y0318380D02*
X0096015Y0318380D01*
X0096689Y0317381D02*
X0099839Y0317381D01*
X0099839Y0316383D02*
X0097103Y0316383D01*
X0097152Y0315384D02*
X0099839Y0315384D01*
X0099839Y0314386D02*
X0097124Y0314386D01*
X0096711Y0313387D02*
X0099839Y0313387D01*
X0099839Y0312389D02*
X0096068Y0312389D01*
X0094715Y0299408D02*
X0099839Y0299408D01*
X0099839Y0298410D02*
X0095986Y0298410D01*
X0096677Y0297411D02*
X0099839Y0297411D01*
X0099839Y0296413D02*
X0097091Y0296413D01*
X0097152Y0295414D02*
X0099839Y0295414D01*
X0099839Y0294416D02*
X0097137Y0294416D01*
X0096723Y0293417D02*
X0099839Y0293417D01*
X0099839Y0292419D02*
X0096097Y0292419D01*
X0094984Y0291420D02*
X0099839Y0291420D01*
X0099839Y0284430D02*
X0097467Y0284430D01*
X0097176Y0283432D02*
X0099839Y0283432D01*
X0099839Y0282433D02*
X0096596Y0282433D01*
X0095624Y0281435D02*
X0099839Y0281435D01*
X0099839Y0280436D02*
X0093169Y0280436D01*
X0092977Y0280436D02*
X0092227Y0280436D01*
X0092035Y0280436D02*
X0071069Y0280436D01*
X0071084Y0301405D02*
X0090256Y0301405D01*
X0089122Y0302404D02*
X0071085Y0302404D01*
X0071086Y0303402D02*
X0088488Y0303402D01*
X0088074Y0304401D02*
X0071086Y0304401D01*
X0071087Y0305399D02*
X0088052Y0305399D01*
X0088108Y0306398D02*
X0071088Y0306398D01*
X0071088Y0307396D02*
X0088522Y0307396D01*
X0089204Y0308395D02*
X0071089Y0308395D01*
X0071090Y0309393D02*
X0090454Y0309393D01*
X0090418Y0319378D02*
X0084128Y0319378D01*
X0084687Y0320377D02*
X0099839Y0320377D01*
X0092602Y0325358D02*
X0087406Y0325358D01*
X0082287Y0320240D01*
X0082287Y0320634D01*
X0082898Y0323372D02*
X0083157Y0323372D01*
X0083908Y0324371D02*
X0084155Y0324371D01*
X0084917Y0325369D02*
X0085154Y0325369D01*
X0085909Y0326368D02*
X0086152Y0326368D01*
X0086903Y0327366D02*
X0088509Y0327366D01*
X0087897Y0328365D02*
X0089174Y0328365D01*
X0088892Y0329363D02*
X0090382Y0329363D01*
X0088500Y0323372D02*
X0087682Y0323372D01*
X0086684Y0322374D02*
X0089152Y0322374D01*
X0090328Y0321375D02*
X0085685Y0321375D01*
X0079768Y0335355D02*
X0073874Y0335355D01*
X0072823Y0334356D02*
X0078718Y0334356D01*
X0077669Y0333357D02*
X0071773Y0333357D01*
X0070722Y0332359D02*
X0076620Y0332359D01*
X0075570Y0331360D02*
X0069671Y0331360D01*
X0070655Y0330362D02*
X0074521Y0330362D01*
X0073472Y0329363D02*
X0071169Y0329363D01*
X0071169Y0328365D02*
X0072422Y0328365D01*
X0071373Y0327366D02*
X0070527Y0327366D01*
X0070323Y0326368D02*
X0069275Y0326368D01*
X0069274Y0325369D02*
X0068215Y0325369D01*
X0068225Y0324371D02*
X0067155Y0324371D01*
X0067175Y0323372D02*
X0066095Y0323372D01*
X0066126Y0322374D02*
X0065035Y0322374D01*
X0065076Y0321375D02*
X0063975Y0321375D01*
X0064027Y0320377D02*
X0062915Y0320377D01*
X0062978Y0319378D02*
X0061855Y0319378D01*
X0061928Y0318380D02*
X0060795Y0318380D01*
X0060879Y0317381D02*
X0059735Y0317381D01*
X0059830Y0316383D02*
X0058675Y0316383D01*
X0058780Y0315384D02*
X0057616Y0315384D01*
X0057731Y0314386D02*
X0056556Y0314386D01*
X0056676Y0313387D02*
X0055496Y0313387D01*
X0055362Y0312389D02*
X0056081Y0312389D01*
X0056081Y0311390D02*
X0055356Y0311390D01*
X0055350Y0310392D02*
X0056081Y0310392D01*
X0056081Y0309393D02*
X0055345Y0309393D01*
X0055339Y0308395D02*
X0056081Y0308395D01*
X0056081Y0307396D02*
X0055333Y0307396D01*
X0055328Y0306398D02*
X0056081Y0306398D01*
X0056081Y0305399D02*
X0055322Y0305399D01*
X0055316Y0304401D02*
X0056081Y0304401D01*
X0056081Y0303402D02*
X0055311Y0303402D01*
X0055305Y0302404D02*
X0056081Y0302404D01*
X0056081Y0301405D02*
X0055300Y0301405D01*
X0055294Y0300407D02*
X0056081Y0300407D01*
X0056081Y0299408D02*
X0055288Y0299408D01*
X0055283Y0298410D02*
X0056081Y0298410D01*
X0056081Y0297411D02*
X0055277Y0297411D01*
X0055271Y0296413D02*
X0056081Y0296413D01*
X0056081Y0295414D02*
X0055266Y0295414D01*
X0055260Y0294416D02*
X0056081Y0294416D01*
X0056081Y0293417D02*
X0055254Y0293417D01*
X0055249Y0292419D02*
X0056081Y0292419D01*
X0056081Y0291420D02*
X0055243Y0291420D01*
X0055237Y0290421D02*
X0056081Y0290421D01*
X0056081Y0289423D02*
X0055232Y0289423D01*
X0055226Y0288424D02*
X0056081Y0288424D01*
X0056081Y0287426D02*
X0055221Y0287426D01*
X0055215Y0286427D02*
X0056081Y0286427D01*
X0056081Y0285429D02*
X0055209Y0285429D01*
X0055204Y0284430D02*
X0056081Y0284430D01*
X0056081Y0283432D02*
X0055198Y0283432D01*
X0055192Y0282433D02*
X0056081Y0282433D01*
X0056081Y0281435D02*
X0055187Y0281435D01*
X0055181Y0280436D02*
X0056081Y0280436D01*
X0056081Y0279438D02*
X0055175Y0279438D01*
X0055170Y0278439D02*
X0056081Y0278439D01*
X0056081Y0277441D02*
X0055164Y0277441D01*
X0055158Y0276442D02*
X0056081Y0276442D01*
X0056081Y0275444D02*
X0055153Y0275444D01*
X0055147Y0274445D02*
X0056081Y0274445D01*
X0056081Y0273447D02*
X0055142Y0273447D01*
X0055136Y0272448D02*
X0056081Y0272448D01*
X0056081Y0271450D02*
X0055130Y0271450D01*
X0055125Y0270451D02*
X0056081Y0270451D01*
X0056081Y0269453D02*
X0055119Y0269453D01*
X0055113Y0268454D02*
X0056081Y0268454D01*
X0056081Y0267456D02*
X0055108Y0267456D01*
X0055102Y0266457D02*
X0056081Y0266457D01*
X0056081Y0265459D02*
X0055096Y0265459D01*
X0055091Y0264460D02*
X0056081Y0264460D01*
X0056081Y0263462D02*
X0055085Y0263462D01*
X0055079Y0262463D02*
X0056081Y0262463D01*
X0056081Y0261465D02*
X0055074Y0261465D01*
X0055068Y0260466D02*
X0056081Y0260466D01*
X0055624Y0259468D02*
X0055063Y0259468D01*
X0055146Y0258469D02*
X0055492Y0258469D01*
X0055544Y0257471D02*
X0055094Y0257471D01*
X0054095Y0256472D02*
X0056542Y0256472D01*
X0057681Y0258429D02*
X0057681Y0312130D01*
X0092602Y0345358D01*
X0094769Y0351331D02*
X0099839Y0351331D01*
X0099839Y0352329D02*
X0096008Y0352329D01*
X0096686Y0353328D02*
X0099839Y0353328D01*
X0099839Y0354326D02*
X0097100Y0354326D01*
X0097152Y0355325D02*
X0099839Y0355325D01*
X0099839Y0356323D02*
X0097128Y0356323D01*
X0096714Y0357322D02*
X0099839Y0357322D01*
X0099839Y0358320D02*
X0096075Y0358320D01*
X0094931Y0359319D02*
X0099839Y0359319D01*
X0099839Y0360317D02*
X0063521Y0360317D01*
X0063521Y0359319D02*
X0090274Y0359319D01*
X0089130Y0358320D02*
X0063610Y0358320D01*
X0063610Y0357322D02*
X0088491Y0357322D01*
X0088077Y0356323D02*
X0062805Y0356323D01*
X0063521Y0361316D02*
X0090472Y0361316D01*
X0090025Y0361501D02*
X0091697Y0360808D01*
X0093507Y0360808D01*
X0095180Y0361501D01*
X0096460Y0362781D01*
X0097152Y0364453D01*
X0097152Y0366263D01*
X0096460Y0367936D01*
X0095180Y0369216D01*
X0093507Y0369908D01*
X0091697Y0369908D01*
X0090025Y0369216D01*
X0088745Y0367936D01*
X0088052Y0366263D01*
X0088052Y0364453D01*
X0088745Y0362781D01*
X0090025Y0361501D01*
X0089212Y0362314D02*
X0063521Y0362314D01*
X0063521Y0363313D02*
X0088525Y0363313D01*
X0088111Y0364311D02*
X0065579Y0364311D01*
X0064216Y0368305D02*
X0026090Y0368305D01*
X0026720Y0367307D02*
X0062019Y0367307D01*
X0062996Y0371028D02*
X0073626Y0375358D01*
X0092602Y0375358D01*
X0090508Y0371301D02*
X0076602Y0371301D01*
X0076602Y0370302D02*
X0099839Y0370302D01*
X0099839Y0369304D02*
X0094966Y0369304D01*
X0096090Y0368305D02*
X0099839Y0368305D01*
X0099839Y0367307D02*
X0096720Y0367307D01*
X0097134Y0366308D02*
X0099839Y0366308D01*
X0099839Y0365310D02*
X0097152Y0365310D01*
X0097094Y0364311D02*
X0099839Y0364311D01*
X0099839Y0363313D02*
X0096680Y0363313D01*
X0095993Y0362314D02*
X0099839Y0362314D01*
X0099839Y0361316D02*
X0094733Y0361316D01*
X0092602Y0355358D02*
X0050746Y0315584D01*
X0050791Y0315539D01*
X0050791Y0263941D01*
X0048665Y0261815D01*
X0048665Y0258350D01*
X0049883Y0256472D02*
X0051818Y0256472D01*
X0049191Y0312389D02*
X0026068Y0312389D01*
X0026711Y0313387D02*
X0049191Y0313387D01*
X0049191Y0314386D02*
X0027124Y0314386D01*
X0024944Y0321375D02*
X0024876Y0321375D01*
X0024841Y0331360D02*
X0041550Y0331360D01*
X0040612Y0332359D02*
X0026038Y0332359D01*
X0026698Y0333357D02*
X0039674Y0333357D01*
X0039768Y0335594D02*
X0047091Y0327799D01*
X0047327Y0327602D01*
X0047287Y0317799D01*
X0045002Y0332359D02*
X0058335Y0332359D01*
X0057131Y0333357D02*
X0044064Y0333357D01*
X0043126Y0334356D02*
X0056491Y0334356D01*
X0056124Y0335355D02*
X0042188Y0335355D01*
X0045163Y0345340D02*
X0027152Y0345340D01*
X0027121Y0346338D02*
X0044164Y0346338D01*
X0043166Y0347337D02*
X0026708Y0347337D01*
X0026060Y0348335D02*
X0042167Y0348335D01*
X0044113Y0352329D02*
X0046854Y0352329D01*
X0045452Y0353130D02*
X0066909Y0340869D01*
X0066909Y0340554D01*
X0068192Y0339272D01*
X0070005Y0339272D01*
X0071287Y0340554D01*
X0071287Y0342367D01*
X0070005Y0343650D01*
X0068493Y0343650D01*
X0047114Y0355866D01*
X0047114Y0356226D01*
X0045832Y0357508D01*
X0044018Y0357508D01*
X0042736Y0356226D01*
X0042736Y0354412D01*
X0044018Y0353130D01*
X0045452Y0353130D01*
X0043821Y0353328D02*
X0043115Y0353328D01*
X0042822Y0354326D02*
X0042261Y0354326D01*
X0042261Y0355325D02*
X0042736Y0355325D01*
X0042834Y0356323D02*
X0042261Y0356323D01*
X0042261Y0357322D02*
X0043832Y0357322D01*
X0042261Y0358320D02*
X0051918Y0358320D01*
X0051752Y0358155D02*
X0051752Y0356341D01*
X0053034Y0355059D01*
X0054848Y0355059D01*
X0056130Y0356341D01*
X0056130Y0358155D01*
X0054848Y0359437D01*
X0053034Y0359437D01*
X0051752Y0358155D01*
X0051752Y0357322D02*
X0046018Y0357322D01*
X0047017Y0356323D02*
X0051770Y0356323D01*
X0052769Y0355325D02*
X0048061Y0355325D01*
X0048601Y0351331D02*
X0045112Y0351331D01*
X0046110Y0350332D02*
X0050348Y0350332D01*
X0052096Y0349334D02*
X0047109Y0349334D01*
X0048107Y0348335D02*
X0053843Y0348335D01*
X0055591Y0347337D02*
X0049231Y0347337D01*
X0049831Y0346338D02*
X0057338Y0346338D01*
X0059085Y0345340D02*
X0049831Y0345340D01*
X0049248Y0344341D02*
X0060833Y0344341D01*
X0062040Y0347337D02*
X0081838Y0347337D01*
X0082889Y0348335D02*
X0060293Y0348335D01*
X0058545Y0349334D02*
X0083940Y0349334D01*
X0084990Y0350332D02*
X0056798Y0350332D01*
X0055051Y0351331D02*
X0086041Y0351331D01*
X0087092Y0352329D02*
X0053303Y0352329D01*
X0051556Y0353328D02*
X0088143Y0353328D01*
X0088105Y0354326D02*
X0049809Y0354326D01*
X0052916Y0359319D02*
X0042261Y0359319D01*
X0042261Y0360317D02*
X0059321Y0360317D01*
X0059321Y0359319D02*
X0054966Y0359319D01*
X0055964Y0358320D02*
X0059232Y0358320D01*
X0059232Y0357322D02*
X0056130Y0357322D01*
X0056112Y0356323D02*
X0060038Y0356323D01*
X0059321Y0361316D02*
X0042261Y0361316D01*
X0042261Y0362314D02*
X0059321Y0362314D01*
X0060807Y0371301D02*
X0024697Y0371301D01*
X0025978Y0372299D02*
X0061172Y0372299D01*
X0064328Y0373298D02*
X0026674Y0373298D01*
X0027087Y0374296D02*
X0066779Y0374296D01*
X0067908Y0371301D02*
X0070806Y0371301D01*
X0070359Y0372299D02*
X0072983Y0372299D01*
X0072809Y0373298D02*
X0088531Y0373298D01*
X0089227Y0372299D02*
X0075953Y0372299D01*
X0076179Y0369304D02*
X0090238Y0369304D01*
X0089115Y0368305D02*
X0074366Y0368305D01*
X0072169Y0367307D02*
X0088485Y0367307D01*
X0088071Y0366308D02*
X0069972Y0366308D01*
X0067775Y0365310D02*
X0088052Y0365310D01*
X0088052Y0355325D02*
X0055113Y0355325D01*
X0060213Y0340347D02*
X0061213Y0340347D01*
X0061213Y0339349D02*
X0060213Y0339349D01*
X0060213Y0338350D02*
X0061213Y0338350D01*
X0061213Y0337352D02*
X0060213Y0337352D01*
X0060213Y0334356D02*
X0061213Y0334356D01*
X0061213Y0333357D02*
X0060213Y0333357D01*
X0060213Y0332359D02*
X0061213Y0332359D01*
X0063303Y0340347D02*
X0067116Y0340347D01*
X0068115Y0339349D02*
X0064394Y0339349D01*
X0065003Y0338350D02*
X0072381Y0338350D01*
X0071330Y0337352D02*
X0065323Y0337352D01*
X0066075Y0341346D02*
X0024805Y0341346D01*
X0026023Y0342344D02*
X0064327Y0342344D01*
X0062580Y0343343D02*
X0026692Y0343343D01*
X0027106Y0344341D02*
X0046036Y0344341D01*
X0045398Y0355004D02*
X0069098Y0341461D01*
X0068311Y0341854D01*
X0067282Y0344341D02*
X0078686Y0344341D01*
X0079737Y0345340D02*
X0065535Y0345340D01*
X0063788Y0346338D02*
X0080787Y0346338D01*
X0077635Y0343343D02*
X0070312Y0343343D01*
X0071287Y0342344D02*
X0076584Y0342344D01*
X0075533Y0341346D02*
X0071287Y0341346D01*
X0071081Y0340347D02*
X0074483Y0340347D01*
X0073432Y0339349D02*
X0070082Y0339349D01*
X0066413Y0369304D02*
X0064368Y0369304D01*
X0065457Y0370302D02*
X0068609Y0370302D01*
X0069230Y0375295D02*
X0027152Y0375295D01*
X0028678Y0376293D02*
X0071681Y0376293D01*
X0064603Y0419229D02*
X0053300Y0419229D01*
X0055361Y0426219D02*
X0088052Y0426219D01*
X0088448Y0427218D02*
X0053996Y0427218D01*
X0057366Y0438862D02*
X0085831Y0430083D01*
X0087060Y0428216D02*
X0089025Y0428216D01*
X0090024Y0429215D02*
X0088020Y0429215D01*
X0088020Y0430213D02*
X0099839Y0430213D01*
X0099839Y0441197D02*
X0094445Y0441197D01*
X0095874Y0442195D02*
X0099839Y0442195D01*
X0099839Y0443194D02*
X0096631Y0443194D01*
X0097044Y0444192D02*
X0099839Y0444192D01*
X0099839Y0445191D02*
X0097152Y0445191D01*
X0097152Y0446189D02*
X0099839Y0446189D01*
X0099839Y0447188D02*
X0096769Y0447188D01*
X0096209Y0448186D02*
X0099839Y0448186D01*
X0099839Y0449185D02*
X0095210Y0449185D01*
X0090724Y0431212D02*
X0087797Y0431212D01*
X0086799Y0432210D02*
X0089316Y0432210D01*
X0090688Y0421226D02*
X0069051Y0421226D01*
X0069531Y0450183D02*
X0099839Y0450183D01*
X0099839Y0451182D02*
X0069531Y0451182D01*
X0084362Y0432210D02*
X0084862Y0432210D01*
X0095074Y0399259D02*
X0099839Y0399259D01*
X0099839Y0398261D02*
X0096135Y0398261D01*
X0096739Y0397262D02*
X0099839Y0397262D01*
X0099839Y0396264D02*
X0097152Y0396264D01*
X0097152Y0395265D02*
X0099839Y0395265D01*
X0099839Y0394267D02*
X0097075Y0394267D01*
X0096661Y0393268D02*
X0099839Y0393268D01*
X0099839Y0392270D02*
X0095948Y0392270D01*
X0095002Y0379289D02*
X0099839Y0379289D01*
X0099839Y0378290D02*
X0096105Y0378290D01*
X0096726Y0377292D02*
X0099839Y0377292D01*
X0099839Y0376293D02*
X0097140Y0376293D01*
X0097152Y0375295D02*
X0099839Y0375295D01*
X0099839Y0374296D02*
X0097087Y0374296D01*
X0096674Y0373298D02*
X0099839Y0373298D01*
X0099839Y0372299D02*
X0095978Y0372299D01*
X0094697Y0371301D02*
X0099839Y0371301D01*
X0092977Y0289423D02*
X0092227Y0289423D01*
X0092227Y0288424D02*
X0092977Y0288424D01*
X0092977Y0287426D02*
X0092227Y0287426D01*
X0092227Y0286427D02*
X0092977Y0286427D01*
X0092977Y0284430D02*
X0092227Y0284430D01*
X0092227Y0283432D02*
X0092977Y0283432D01*
X0092977Y0282433D02*
X0092227Y0282433D01*
X0092227Y0281435D02*
X0092977Y0281435D01*
X0094643Y0279438D02*
X0099839Y0279438D01*
X0099839Y0278439D02*
X0095956Y0278439D01*
X0096665Y0277441D02*
X0099839Y0277441D01*
X0099839Y0276442D02*
X0097078Y0276442D01*
X0097152Y0275444D02*
X0099839Y0275444D01*
X0099839Y0274445D02*
X0097149Y0274445D01*
X0096735Y0273447D02*
X0099839Y0273447D01*
X0099839Y0272448D02*
X0096127Y0272448D01*
X0095056Y0271450D02*
X0099839Y0271450D01*
X0099839Y0254475D02*
X0014893Y0254475D01*
X0014893Y0253477D02*
X0099839Y0253477D01*
X0099839Y0252478D02*
X0014893Y0252478D01*
X0014893Y0251480D02*
X0099839Y0251480D01*
X0099839Y0250481D02*
X0014893Y0250481D01*
X0014893Y0249483D02*
X0099839Y0249483D01*
X0049732Y0398261D02*
X0026135Y0398261D01*
X0026739Y0397262D02*
X0048733Y0397262D01*
X0048602Y0396264D02*
X0027152Y0396264D01*
X0027152Y0395265D02*
X0048655Y0395265D01*
X0049653Y0394267D02*
X0027075Y0394267D01*
X0025963Y0382285D02*
X0034320Y0382285D01*
X0032060Y0381286D02*
X0024661Y0381286D01*
X0025002Y0379289D02*
X0027540Y0379289D01*
X0027134Y0366308D02*
X0038646Y0366308D01*
X0037972Y0365310D02*
X0027152Y0365310D01*
X0027094Y0364311D02*
X0037972Y0364311D01*
X0038061Y0363313D02*
X0026680Y0363313D01*
X0025993Y0362314D02*
X0038061Y0362314D01*
X0038061Y0361316D02*
X0024733Y0361316D01*
X0019159Y0338350D02*
X0014893Y0338350D01*
X0014893Y0337352D02*
X0018503Y0337352D01*
X0018090Y0336353D02*
X0014893Y0336353D01*
X0014893Y0335355D02*
X0018052Y0335355D01*
X0018093Y0334356D02*
X0014893Y0334356D01*
X0014893Y0333357D02*
X0018506Y0333357D01*
X0019167Y0332359D02*
X0014893Y0332359D01*
X0014893Y0309393D02*
X0019735Y0309393D01*
X0020008Y0309592D02*
X0019378Y0309134D01*
X0018827Y0308583D01*
X0018369Y0307953D01*
X0018015Y0307258D01*
X0017774Y0306517D01*
X0017652Y0305748D01*
X0017652Y0305733D01*
X0022227Y0305733D01*
X0022227Y0310308D01*
X0022213Y0310308D01*
X0021443Y0310186D01*
X0020702Y0309946D01*
X0020008Y0309592D01*
X0018690Y0308395D02*
X0014893Y0308395D01*
X0014893Y0307396D02*
X0018085Y0307396D01*
X0017755Y0306398D02*
X0014893Y0306398D01*
X0014893Y0299408D02*
X0020490Y0299408D01*
X0019219Y0298410D02*
X0014893Y0298410D01*
X0014893Y0297411D02*
X0018528Y0297411D01*
X0018114Y0296413D02*
X0014893Y0296413D01*
X0014893Y0295414D02*
X0018052Y0295414D01*
X0018068Y0294416D02*
X0014893Y0294416D01*
X0014893Y0293417D02*
X0018482Y0293417D01*
X0019107Y0292419D02*
X0014893Y0292419D01*
X0014893Y0291420D02*
X0020220Y0291420D01*
X0022227Y0301405D02*
X0022977Y0301405D01*
X0022977Y0302404D02*
X0022227Y0302404D01*
X0022227Y0303402D02*
X0022977Y0303402D01*
X0022977Y0304401D02*
X0022227Y0304401D01*
X0022227Y0306398D02*
X0022977Y0306398D01*
X0022977Y0307396D02*
X0022227Y0307396D01*
X0022227Y0308395D02*
X0022977Y0308395D01*
X0022977Y0309393D02*
X0022227Y0309393D01*
X0027112Y0334356D02*
X0037911Y0334356D01*
X0037579Y0335355D02*
X0027152Y0335355D01*
X0027115Y0336353D02*
X0037579Y0336353D01*
X0038429Y0337352D02*
X0026702Y0337352D01*
X0019249Y0278439D02*
X0014893Y0278439D01*
X0014893Y0277441D02*
X0018540Y0277441D01*
X0018127Y0276442D02*
X0014893Y0276442D01*
X0014893Y0275444D02*
X0018052Y0275444D01*
X0018056Y0274445D02*
X0014893Y0274445D01*
X0014893Y0273447D02*
X0018469Y0273447D01*
X0019078Y0272448D02*
X0014893Y0272448D01*
X0014893Y0271450D02*
X0020149Y0271450D01*
X0045398Y0355004D02*
X0044925Y0355319D01*
X0044844Y0422225D02*
X0025904Y0422225D01*
X0026643Y0423223D02*
X0044017Y0423223D01*
X0043189Y0424222D02*
X0027057Y0424222D01*
X0027152Y0425221D02*
X0042362Y0425221D01*
X0041916Y0426219D02*
X0027152Y0426219D01*
X0026757Y0427218D02*
X0042009Y0427218D01*
X0042675Y0428216D02*
X0026179Y0428216D01*
X0024445Y0441197D02*
X0035059Y0441197D01*
X0035061Y0442195D02*
X0025874Y0442195D01*
X0026631Y0443194D02*
X0035063Y0443194D01*
X0035065Y0444192D02*
X0027044Y0444192D01*
X0027152Y0445191D02*
X0035067Y0445191D01*
X0035069Y0446189D02*
X0027152Y0446189D01*
X0026769Y0447188D02*
X0035072Y0447188D01*
X0035074Y0448186D02*
X0026209Y0448186D01*
X0025210Y0449185D02*
X0035076Y0449185D01*
D14*
X0033862Y0439925D02*
X0034925Y0438862D01*
X0047366Y0438862D01*
D15*
X0055516Y0379295D03*
D16*
X0056382Y0390201D03*
X0050791Y0396224D03*
X0050752Y0405122D03*
X0052760Y0425358D03*
X0044256Y0426539D03*
X0038980Y0427327D03*
X0030673Y0446067D03*
X0029492Y0400398D03*
X0033429Y0385831D03*
X0033429Y0364571D03*
X0040161Y0364728D03*
X0044925Y0355319D03*
X0047642Y0345831D03*
X0053390Y0330713D03*
X0047287Y0317799D03*
X0044460Y0321817D03*
X0039768Y0335594D03*
X0053941Y0357248D03*
X0061421Y0358035D03*
X0065004Y0348154D03*
X0069098Y0341461D03*
X0068980Y0328941D03*
X0078193Y0348311D03*
X0083075Y0341500D03*
X0081736Y0329177D03*
X0082287Y0320634D03*
X0085791Y0370083D03*
X0085398Y0400004D03*
X0086224Y0413154D03*
X0085398Y0421264D03*
X0085831Y0430083D03*
X0074256Y0390358D03*
X0074413Y0370634D03*
X0068114Y0380870D03*
X0062996Y0371028D03*
X0066894Y0425988D03*
X0026776Y0268272D03*
X0032287Y0254492D03*
X0048665Y0258350D03*
X0052957Y0258429D03*
X0057681Y0258429D03*
X0069453Y0258390D03*
X0093705Y0254098D03*
X0094098Y0264728D03*
D17*
X0053272Y0314177D02*
X0068902Y0328902D01*
X0068980Y0328941D01*
X0061421Y0358035D02*
X0061421Y0364728D01*
X0074413Y0370634D01*
X0070752Y0385516D02*
X0092366Y0385594D01*
X0092602Y0385358D01*
X0074335Y0390240D02*
X0074256Y0390358D01*
X0070752Y0385516D02*
X0059256Y0396224D01*
X0050791Y0396224D01*
X0061421Y0364728D02*
X0040161Y0364728D01*
X0040161Y0353311D01*
X0047642Y0345831D01*
X0053272Y0314177D02*
X0052957Y0258429D01*
D18*
X0074335Y0390240D02*
X0044256Y0426539D01*
D19*
X0052760Y0425358D02*
X0086224Y0413154D01*
M02*
