G75*
%MOIN*%
%OFA0B0*%
%FSLAX25Y25*%
%IPPOS*%
%LPD*%
%AMOC8*
5,1,8,0,0,1.08239X$1,22.5*
%
%ADD10C,0.07500*%
%ADD11C,0.06998*%
%ADD12R,0.02962X0.02667*%
%ADD13R,0.04537X0.04931*%
%ADD14C,0.01188*%
%ADD15R,0.01584X0.02569*%
%ADD16C,0.01381*%
%ADD17R,0.01781X0.02569*%
%ADD18R,0.01584X0.01584*%
%ADD19R,0.02569X0.06860*%
%ADD20R,0.02175X0.02175*%
%ADD21C,0.01481*%
%ADD22R,0.02569X0.01584*%
%ADD23R,0.00994X0.01328*%
%ADD24C,0.01151*%
%ADD25R,0.00797X0.00797*%
%ADD26R,0.00915X0.01112*%
%ADD27R,0.01112X0.00915*%
%ADD28R,0.04931X0.04537*%
%ADD29C,0.05600*%
%ADD30R,0.05600X0.02800*%
%ADD31R,0.03750X0.03750*%
%ADD32R,0.03750X0.06506*%
%ADD33R,0.06112X0.08080*%
%ADD34R,0.07687X0.06112*%
%ADD35R,0.04143X0.03750*%
D10*
X0022602Y0275358D03*
X0022602Y0285358D03*
X0022602Y0295358D03*
X0022602Y0305358D03*
X0022602Y0315358D03*
X0022602Y0325358D03*
X0022602Y0335358D03*
X0022602Y0345358D03*
X0022602Y0355358D03*
X0022602Y0365358D03*
X0022602Y0375358D03*
X0022602Y0385358D03*
X0022602Y0395358D03*
X0022602Y0405358D03*
X0022602Y0415358D03*
X0022602Y0425358D03*
X0022602Y0435358D03*
X0022602Y0445358D03*
X0092602Y0445358D03*
X0092602Y0435358D03*
X0092602Y0425358D03*
X0092602Y0415358D03*
X0092602Y0405358D03*
X0092602Y0395358D03*
X0092602Y0385358D03*
X0092602Y0375358D03*
X0092602Y0365358D03*
X0092602Y0355358D03*
X0092602Y0345358D03*
X0092602Y0335358D03*
X0092602Y0325358D03*
X0092602Y0315358D03*
X0092602Y0305358D03*
X0092602Y0295358D03*
X0092602Y0285358D03*
X0092602Y0275358D03*
D11*
X0060713Y0336421D03*
D12*
X0060713Y0344728D03*
X0064256Y0344728D03*
X0064256Y0341382D03*
X0057169Y0341382D03*
X0057169Y0344728D03*
D13*
X0054217Y0351461D03*
X0060909Y0351461D03*
X0068272Y0358035D03*
X0068272Y0364728D03*
X0075161Y0355043D03*
X0074374Y0335280D03*
X0081067Y0335280D03*
X0081854Y0355043D03*
X0079728Y0396185D03*
X0079886Y0404768D03*
X0073193Y0404768D03*
X0073035Y0396185D03*
X0064650Y0404886D03*
X0057957Y0404886D03*
X0045122Y0396028D03*
X0040201Y0377366D03*
X0040201Y0370673D03*
X0040043Y0355358D03*
X0040004Y0347287D03*
X0033311Y0347287D03*
X0033350Y0355358D03*
X0033114Y0370634D03*
X0033114Y0377327D03*
X0038429Y0396028D03*
X0047563Y0341343D03*
X0047563Y0334650D03*
X0073232Y0429846D03*
X0075516Y0438626D03*
X0079925Y0429846D03*
X0082209Y0438626D03*
D14*
X0061558Y0383037D02*
X0061558Y0382641D01*
X0061558Y0383037D02*
X0062150Y0383037D01*
X0062150Y0382641D01*
X0061558Y0382641D01*
X0061558Y0381462D02*
X0061558Y0381066D01*
X0061558Y0381462D02*
X0062150Y0381462D01*
X0062150Y0381066D01*
X0061558Y0381066D01*
X0061558Y0379887D02*
X0061558Y0379491D01*
X0061558Y0379887D02*
X0062150Y0379887D01*
X0062150Y0379491D01*
X0061558Y0379491D01*
X0061558Y0378312D02*
X0061558Y0377916D01*
X0061558Y0378312D02*
X0062150Y0378312D01*
X0062150Y0377916D01*
X0061558Y0377916D01*
X0059296Y0375654D02*
X0058900Y0375654D01*
X0059296Y0375654D02*
X0059296Y0375062D01*
X0058900Y0375062D01*
X0058900Y0375654D01*
X0057722Y0375654D02*
X0057326Y0375654D01*
X0057722Y0375654D02*
X0057722Y0375062D01*
X0057326Y0375062D01*
X0057326Y0375654D01*
X0056147Y0375654D02*
X0055751Y0375654D01*
X0056147Y0375654D02*
X0056147Y0375062D01*
X0055751Y0375062D01*
X0055751Y0375654D01*
X0054572Y0375654D02*
X0054176Y0375654D01*
X0054572Y0375654D02*
X0054572Y0375062D01*
X0054176Y0375062D01*
X0054176Y0375654D01*
X0051914Y0377916D02*
X0051914Y0378312D01*
X0051914Y0377916D02*
X0051322Y0377916D01*
X0051322Y0378312D01*
X0051914Y0378312D01*
X0051914Y0379491D02*
X0051914Y0379887D01*
X0051914Y0379491D02*
X0051322Y0379491D01*
X0051322Y0379887D01*
X0051914Y0379887D01*
X0051914Y0381066D02*
X0051914Y0381462D01*
X0051914Y0381066D02*
X0051322Y0381066D01*
X0051322Y0381462D01*
X0051914Y0381462D01*
X0051914Y0382641D02*
X0051914Y0383037D01*
X0051914Y0382641D02*
X0051322Y0382641D01*
X0051322Y0383037D01*
X0051914Y0383037D01*
X0054176Y0385298D02*
X0054572Y0385298D01*
X0054176Y0385298D02*
X0054176Y0385890D01*
X0054572Y0385890D01*
X0054572Y0385298D01*
X0055751Y0385298D02*
X0056147Y0385298D01*
X0055751Y0385298D02*
X0055751Y0385890D01*
X0056147Y0385890D01*
X0056147Y0385298D01*
X0057326Y0385298D02*
X0057722Y0385298D01*
X0057326Y0385298D02*
X0057326Y0385890D01*
X0057722Y0385890D01*
X0057722Y0385298D01*
X0058900Y0385298D02*
X0059296Y0385298D01*
X0058900Y0385298D02*
X0058900Y0385890D01*
X0059296Y0385890D01*
X0059296Y0385298D01*
D15*
X0059098Y0386579D03*
X0057524Y0386579D03*
X0055949Y0386579D03*
X0054374Y0386579D03*
X0052799Y0386579D03*
X0052799Y0374374D03*
X0054374Y0374374D03*
X0055949Y0374374D03*
X0057524Y0374374D03*
X0059098Y0374374D03*
X0060673Y0374374D03*
X0060673Y0386579D03*
D16*
X0059791Y0377736D02*
X0056241Y0377736D01*
X0056241Y0383216D01*
X0059791Y0383216D01*
X0059791Y0377736D01*
X0059791Y0379116D02*
X0056241Y0379116D01*
X0056241Y0380496D02*
X0059791Y0380496D01*
X0059791Y0381876D02*
X0056241Y0381876D01*
D17*
G36*
X0054128Y0380955D02*
X0052869Y0382214D01*
X0054684Y0384029D01*
X0055943Y0382770D01*
X0054128Y0380955D01*
G37*
D18*
X0056736Y0380476D03*
D19*
X0055673Y0380476D03*
D20*
X0054079Y0381421D03*
D21*
X0053731Y0377787D02*
X0055213Y0377787D01*
X0053731Y0377787D02*
X0053731Y0381631D01*
X0055213Y0381631D01*
X0055213Y0377787D01*
X0055213Y0379267D02*
X0053731Y0379267D01*
X0053731Y0380747D02*
X0055213Y0380747D01*
D22*
X0050634Y0381264D03*
X0050634Y0382839D03*
X0050634Y0384413D03*
X0050634Y0379689D03*
X0050634Y0378114D03*
X0050634Y0376539D03*
X0062839Y0376539D03*
X0062839Y0378114D03*
X0062839Y0379689D03*
X0062839Y0381264D03*
X0062839Y0382839D03*
X0062839Y0384413D03*
D23*
G36*
X0061775Y0385326D02*
X0062477Y0384624D01*
X0061539Y0383686D01*
X0060837Y0384388D01*
X0061775Y0385326D01*
G37*
G36*
X0060648Y0384578D02*
X0059946Y0385280D01*
X0060884Y0386218D01*
X0061586Y0385516D01*
X0060648Y0384578D01*
G37*
G36*
X0060837Y0376565D02*
X0061539Y0377267D01*
X0062477Y0376329D01*
X0061775Y0375627D01*
X0060837Y0376565D01*
G37*
G36*
X0061586Y0375437D02*
X0060884Y0374735D01*
X0059946Y0375673D01*
X0060648Y0376375D01*
X0061586Y0375437D01*
G37*
G36*
X0052825Y0376375D02*
X0053527Y0375673D01*
X0052589Y0374735D01*
X0051887Y0375437D01*
X0052825Y0376375D01*
G37*
G36*
X0051697Y0375627D02*
X0050995Y0376329D01*
X0051933Y0377267D01*
X0052635Y0376565D01*
X0051697Y0375627D01*
G37*
G36*
X0052635Y0384388D02*
X0051933Y0383686D01*
X0050995Y0384624D01*
X0051697Y0385326D01*
X0052635Y0384388D01*
G37*
G36*
X0051887Y0385516D02*
X0052589Y0386218D01*
X0053527Y0385280D01*
X0052825Y0384578D01*
X0051887Y0385516D01*
G37*
D24*
X0053016Y0385280D03*
X0051933Y0384197D03*
X0051933Y0376756D03*
X0053016Y0375673D03*
X0060457Y0375673D03*
X0061539Y0376756D03*
X0061539Y0384197D03*
X0060457Y0385280D03*
D25*
X0060555Y0385102D03*
X0061362Y0384295D03*
X0061362Y0376657D03*
X0060555Y0375850D03*
X0052917Y0375850D03*
X0052110Y0376657D03*
X0052110Y0384295D03*
X0052917Y0385102D03*
D26*
X0051539Y0384650D03*
X0051776Y0384177D03*
X0051776Y0376776D03*
X0051539Y0376303D03*
X0061697Y0376776D03*
X0061933Y0376303D03*
X0061697Y0384177D03*
X0061933Y0384650D03*
D27*
X0060909Y0385673D03*
X0060437Y0385437D03*
X0060437Y0375516D03*
X0060909Y0375280D03*
X0053035Y0375516D03*
X0052563Y0375280D03*
X0053035Y0385437D03*
X0052563Y0385673D03*
D28*
X0058035Y0396067D03*
X0064728Y0396067D03*
X0057563Y0364768D03*
X0050870Y0364768D03*
X0061067Y0328272D03*
X0061067Y0321579D03*
X0075358Y0320437D03*
X0075358Y0327130D03*
X0075201Y0364059D03*
X0074689Y0376539D03*
X0081382Y0376539D03*
X0081894Y0364059D03*
X0079925Y0413193D03*
X0079925Y0421618D03*
X0073232Y0421618D03*
X0073232Y0413193D03*
X0045161Y0404965D03*
X0043626Y0413154D03*
X0043626Y0419846D03*
X0038469Y0404965D03*
X0032563Y0413114D03*
X0032563Y0419807D03*
D29*
X0047366Y0438862D03*
X0057366Y0438862D03*
D30*
X0052699Y0420318D03*
X0052699Y0416618D03*
X0052699Y0412918D03*
X0062899Y0412918D03*
X0062899Y0420318D03*
D31*
X0075594Y0445516D03*
X0081500Y0445516D03*
X0032169Y0431815D03*
X0032169Y0425909D03*
D32*
X0061224Y0274846D03*
X0065555Y0273272D03*
X0056894Y0273272D03*
X0052563Y0272484D03*
X0048232Y0273272D03*
X0043902Y0272484D03*
X0039571Y0273272D03*
X0035240Y0273272D03*
D33*
X0032130Y0262051D03*
X0083902Y0258114D03*
D34*
X0060870Y0313823D03*
X0038429Y0313823D03*
D35*
X0034492Y0323547D03*
X0034492Y0331028D03*
X0042760Y0327287D03*
M02*
